<?xml version="1.0" standalone="no"?>
<!DOCTYPE svg PUBLIC "-//W3C//DTD SVG 1.1//EN" "http://www.w3.org/Graphics/SVG/1.1/DTD/svg11.dtd" >
<svg xmlns="http://www.w3.org/2000/svg" xmlns:xlink="http://www.w3.org/1999/xlink" version="1.1">
<metadata>
Created by FontForge 20201107 at Wed Jan 19 15:14:48 2022
 By hackman2020
Generated by Glyphter
</metadata>
<defs>
<font id="PeleTwo" horiz-adv-x="1024" >
  <font-face 
    font-family="PeleTwo"
    font-weight="400"
    font-stretch="normal"
    units-per-em="1024"
    panose-1="2 0 5 3 0 0 0 0 0 0"
    ascent="1024"
    descent="0"
    x-height="908.009"
    cap-height="711"
    bbox="-70.9434 -1.9 1462.74 1025.42"
    underline-thickness="0"
    underline-position="10"
    unicode-range="U+0032-0078"
  />
<missing-glyph 
 />
    <glyph glyph-name=".notdef" 
 />
    <glyph glyph-name=".notdef" 
 />
    <glyph glyph-name="two" unicode="2" 
d="M155 436q15 26 57.5 45.5t107.5 31.5q-10 92 9 192t74 196q132 200 234.5 78.5t65.5 -460.5q30 -3 62 -8q198 -61 46 -272t-308 -238q-128 19 -249 188t-99 247v0z" />
    <glyph glyph-name="four" unicode="4" 
d="M436 870q25 -15 44.5 -57.5t31.5 -107.5q93 10 192.5 -9t196.5 -74q200 -133 78 -235t-460 -65q-4 -30 -8 -62q-61 -198 -272 -46t-239 308q20 128 188.5 249t247.5 99v0z" />
    <glyph glyph-name="six" unicode="6" 
d="M588 870q-25 -15 -44.5 -57.5t-31.5 -107.5q-93 10 -192.5 -9t-196.5 -74q-200 -133 -78 -235t460 -65q4 -30 8 -62q61 -198 272 -46t239 308q-20 128 -188.5 249t-247.5 99v0z" />
    <glyph glyph-name="eight" unicode="8" 
d="M155 588q15 -25 57.5 -44.5t107.5 -31.5q-10 -93 9 -192.5t74 -196.5q132 -200 234.5 -78t65.5 460q30 4 62 8q198 61 46 272t-308 239q-128 -20 -249 -188.5t-99 -247.5v0z" />
    <glyph glyph-name="A" unicode="A" 
d="M2 614q33 116 156 195.5t139 82.5q-219 -198 -191.5 -413t48.5 -233q-12 9 -84.5 127.5t-67.5 240.5v0zM141 584q24 84 112.5 141.5t99.5 59.5q-157 -142 -137.5 -297t34.5 -168q-8 6 -60.5 91t-48.5 173v0zM348 382q-6 4 -40.5 60t-31.5 114q15 55 73.5 92.5t65.5 38.5
q-103 -93 -90 -194.5t23 -110.5v0zM963 267q-10 2 -80 17l-81 18l-414 -212l187 846l293 -338l156 -56l-61 -275v0z" />
    <glyph glyph-name="B" unicode="B" 
d="M830 59q-1 1 -2 1q-28 -66 -140.5 -57.5t-135.5 135.5q1 99 87 82t146 -52l97 414l-507 125l-82 -510q-25 -68 -139 -60.5t-139 136.5q1 99 88 81.5t146 -52.5l110 723l651 -181l-180 -785v0z" />
    <glyph glyph-name="C" unicode="C" 
d="M1008 530q-8 2 -63 19l-64 20q36 74 -41.5 135.5t-166.5 66.5l-15 253l-119 -233q-63 32 -140.5 5t-100.5 -101l-147 107l98 -172q-87 -7 -135 -77t2 -140l-100 -40l96 -42q-13 -67 68.5 -135.5t167.5 -62.5q12 -48 23 -89l12 -44l58 132q54 -43 134 -28.5t115 79.5
l144 -115l-67 158q86 9 142.5 93.5t-15.5 165.5l114 45v0zM685 278q4 -111 -112.5 -134t-153.5 66q-85 -89 -206 8t-17 159q-105 74 -40.5 163t170.5 63q-24 126 99.5 155.5t157.5 -78.5q50 91 190.5 16t25.5 -180q146 -89 61.5 -194t-175.5 -44v0zM609 505q-1 4 -2 9
q-26 65 -95 56t-77 -15q4 3 49.5 2.5t84.5 -46.5q26 -53 -8 -93.5t-42 -42.5q5 0 39.5 23t49.5 70q19 -3 49 -12.5t51 -27.5q-8 38 -41.5 55.5t-57.5 21.5v0zM317 340q-35 33 -24 70.5t15 40.5q-93 -111 2 -141.5t190 0.5q-46 -10 -94.5 -5t-88.5 35v0z" />
    <glyph glyph-name="D" unicode="D" 
d="M979 725l-57 -9.5t-74 -13.5q-18 -8 -27.5 -37t-9.5 -33l-82 -14q-11 38 -23 65t-25 35q-8 5 -37.5 4t-73.5 -7l-8 81l99 35q6 -7 15 -12q19 -8 71.5 8.5t102.5 40.5q43 26 27 51.5t-56 20.5q-43 -9 -103 -27t-70 -33q-2 -10 1 -24l-128 -45l14 -101l-54 -9l-32 41
q-17 21 -24 26q-28 1 -171 -8l-164 -11l-12 -139q-36 -11 -57 -20t-21 -15q3 -18 26.5 -148t35.5 -154q4 -2 47.5 1t113.5 9l-39 -189l58 -3l29 197q52 5 109 11l-6 -113l41 -2l-12 117q62 7 122 15l54 -230l43 -2l-61 237q92 12 152 25t63 24q0 11 -4 40.5t-11 70.5l78 10
q3 -3 24 -20.5t34 -20.5q17 0 69 13l58 15l-45 247v0zM148 692q14 1 118 11l118 11l20 -27q-69 -13 -137.5 -28.5t-126.5 -31.5l8 65v0zM199 358q-17 29 -28.5 92.5t-7.5 88.5q19 17 149 48t168 25q22 -20 36.5 -98t7.5 -104q-27 -18 -164.5 -37t-160.5 -15v0zM473 594
q-31 5 -152.5 -23.5t-141.5 -42.5q-3 -20 10.5 -82.5t21.5 -74.5q23 -1 146.5 18t146.5 31q6 18 -4.5 86.5t-26.5 87.5v0z" />
    <glyph glyph-name="E" unicode="E" 
d="M839 849q-6 4 -49 32l-49 33l-11 -15l98 -66zM856 948q-25 23 -49 20.5t-60 -45.5l98 -63q4 3 18 33.5t-7 54.5v0zM512 512q6 1 50 12l50 12l211 290l-98 66l-213 -292v-88zM690 611q-4 -5 -32 -44l-32 -45l-135 -33v90l-260 -60l-15 18l275 60v11l34 44l-347 -80l-15 18
l378 84l35 45l-68 65l-508 -97l548 -631l476 240l-334 315v0zM109 644q25 5 201 44l202 45l11 -15l-399 -92l-15 18v0zM491 503q-12 -2 -98 -22l-99 -23l-14 18l211 47v-20v0z" />
    <glyph glyph-name="F" unicode="F" 
d="M405 16q-17 -12 -48.5 -15t-49.5 2t-44.5 26.5t-39.5 46.5q-2 5 -2 12q50 -6 107.5 -10.5t105.5 -8.5q-10 -21 -17.5 -35.5t-11.5 -17.5v0zM446 96q-52 5 -113 11l-108 11q4 25 12 56q52 -6 117 -11.5t116 -8.5l-24 -58v0zM481 180q-54 5 -121 12l-116 12q8 28 16 55
q55 -6 123.5 -12t119.5 -9l-22 -58v0zM514 265q-55 4 -126 11l-120 13l26 83q70 -36 118.5 -52t110.5 -27l-9 -28v0zM403 641q18 0 39 7v-1h1q18 -17 45 -17q18 0 35 4h1v0l1 -4q6 -18 16 -32v0q-10 -8 -15 -18q-15 -32 -37 -110.5t-33 -120.5q-36 10 -68.5 22.5t-57.5 24.5
q12 31 37.5 107t35.5 138v0v0v0zM449 675q-3 12 -4 25t1 23q2 6 5.5 7t8 -0.5t7 -5t3 -12.5t-8.5 -24q-5 -8 -12 -13v0zM551 701q3 2 6 1t6 -4q4 -6 -2 -16t-21 -20q-1 17 2.5 26.5t8.5 12.5v0zM575 328q-49 3 -97 15q11 43 32.5 120t36.5 109q2 6 10 11q18 -13 41 -17t43 4
q26 10 29 29t-19 27q-20 6 -46.5 0.5t-47.5 -17.5q-7 9 -10 22q-2 5 -4 11q25 12 37 29t0 34q-8 10 -20.5 13t-23.5 -3q-24 -14 -17 -62q-17 -6 -34 -6t-25 9q13 9 21 22q11 18 10.5 30.5t-5.5 19.5q-7 12 -20.5 16.5t-26 0t-14.5 -15.5q-3 -14 -1.5 -31.5t8.5 -33.5
q-14 -6 -28 -6v10q0 9 -4.5 25t-23.5 23q-4 2 -11 2t-16 -4q-11 -6 -18 -16.5t-5.5 -21.5t17 -20t37.5 -13q-9 -59 -33.5 -132t-37.5 -105q-22 11 -34 18l-13 7q-154 250 -41.5 443t368.5 132q250 -85 261 -276t-275 -402v0zM571 594q20 11 41.5 15.5t33.5 1.5q3 0 3 -6
q-3 -13 -20 -20q-14 -5 -30 -2.5t-28 11.5v0zM382 659q-15 3 -24.5 8t-10.5 9.5t4 11.5t12 10.5t9 3t5.5 -7.5t4.5 -24v-11v0z" />
    <glyph glyph-name="G" unicode="G" 
d="M984 621q-56 11 -160.5 -43.5t-116.5 -64.5q-17 16 -34 33q-304 271 -465.5 215.5t-163.5 -84.5q31 -8 279 -74t343 -97l-665 -7q9 -17 171.5 -88t371.5 8q5 3 57.5 26.5t89.5 35.5q29 -61 91.5 -150t132.5 -64q63 33 4 77.5t-175 136.5q53 -7 120 -14t107 5
q49 23 53 73.5t-40 75.5v0zM788 390q23 16 73 -25.5t24 -59.5q-39 -8 -74 23.5t-23 61.5v0zM807 529q13 26 79.5 45.5t85.5 -30.5q-2 -53 -80 -48t-85 33v0z" />
    <glyph glyph-name="H" unicode="H" 
d="M506 488q-36 30 -32.5 100t-17.5 100q-33 24 -100 31t-74 6q-197 -9 -245.5 -110t-33.5 -209q6 -113 122.5 -248.5t367.5 -149.5q240 17 252 171t-43 214q-44 39 -98 56.5t-98 38.5v0zM127 426q-53 36 -54.5 77t80.5 12q43 -24 34.5 -67.5t-60.5 -21.5v0zM222 270
q-44 37 -52 71t52 10q52 -30 47.5 -68.5t-47.5 -12.5v0zM375 660q38 -15 48.5 -68t-64.5 -33q-80 34 -74.5 72.5t90.5 28.5v0zM375 173q-47 28 -46.5 66t58.5 20q49 -26 42 -64t-54 -22v0zM513 74q-57 2 -64.5 33.5t64.5 36.5q50 -4 52 -33.5t-52 -36.5v0zM547 782
q2 19 -7 47t-45 54q-57 36 -123.5 67.5t-91.5 62.5q-17 9 52.5 -121.5t180.5 -137.5q40 -46 185.5 -191t280.5 -232q111 -55 -64.5 128t-367.5 323v0z" />
    <glyph glyph-name="I" unicode="I" 
d="M508 339q75 259 186.5 322.5t150.5 49.5q-68 23 -178 -39t-177 -272q-22 76 -65 115.5t-90 60.5l-8 -73q53 -18 91 -64t58 -100q-110 -1 -230 -7.5t-246 -22.5l1024 -1q-4 2 -145.5 15t-370.5 16v0zM149 426q130 -2 149.5 117t-141.5 144q-126 -8 -129 -117t121 -144v0z
M139 669q56 1 36 -30.5t-46 -32.5q-25 7 -36.5 30.5t46.5 32.5v0z" />
    <glyph glyph-name="J" unicode="J" 
d="M639 303q16 10 20.5 20.5t-30.5 -1.5v0v20q10 3 19 6q154 302 101.5 487.5t-250.5 188.5q-196 -22 -231 -250t133 -426l15 -3l4 -88q-2 -1 -12.5 -13t-1.5 -16q4 -1 16 2l4 -53l-6 -1q-2 -2 -12.5 -14t-1.5 -16q5 0 22 4q2 -30 5 -52l-13 -4q-2 -2 -12.5 -14t-1.5 -16
q6 0 32 7q2 -10 4 -14q14 -20 37 -36.5t40 -20.5q18 -1 48 14.5t43 30.5q3 5 6 28.5t5 57.5q14 6 18 8q16 10 20.5 20.5t-30.5 -0.5l-6 -2l2 58q11 4 14 6q16 10 20.5 20.5t-30.5 -0.5l-3 -1l2 58q8 3 11 5v0zM447 345q51 -11 84.5 -10.5t74.5 7.5q1 -6 0 -27
q-35 -12 -81 -26l-77 -23l-1 79v0zM459 611v0v0q12 5 23 17h1v0q15 -10 32 -2q11 5 21 14v-1l1 1l1 -4q7 -13 17 -22v-1q-5 -10 -6 -19q-3 -33 -0.5 -107.5t4.5 -114.5q-25 -2 -48 0t-41 5q1 31 1.5 104.5t-6.5 129.5v0zM481 654q-4 9 -7.5 20t-3.5 21q-1 6 1.5 7.5t5.5 1.5
t5 -2t4 -10t0 -24q-2 -8 -5 -14v0zM540 706q1 2 3 2t5 -2q4 -4 2 -14t-9 -23q-8 29 -1 37v0zM415 388q-149 173 -118 374t204 221q174 -3 220 -166t-89 -429q-32 -12 -64 -15q-2 40 -4.5 113.5t0.5 105.5q0 6 3 13q15 -7 30 -3.5t26 15.5q14 16 12 34t-17 18
q-14 0 -29 -12.5t-27 -29.5q-6 7 -11 16l-4 9q13 18 17 36.5t-6 28.5q-8 7 -16.5 6t-13.5 -9q-13 -20 2 -59q-10 -11 -20.5 -15.5t-17.5 1.5q6 11 8 25q3 19 0.5 29.5t-6.5 15.5q-7 8 -17 8t-16.5 -7t-5.5 -19t5.5 -27t12.5 -26q-8 -9 -17 -13l-2 8q-1 7 -7.5 20t-19.5 14
q-7 2 -17 -10q-5 -8 -7.5 -19t1 -20t15 -13t26.5 0q6 -54 5.5 -125t-1.5 -103q-16 3 -25 6l-9 3v0zM574 618q11 16 23.5 26t20.5 10q2 1 3 -4q1 -12 -9 -23q-7 -8 -17.5 -10.5t-20.5 1.5v0zM442 621q-9 -2 -16.5 -0.5t-9 5.5t0.5 11t5.5 12.5t5 5.5t5 -5t7.5 -19l2 -10v0z
M589 67q-7 -16 -26.5 -27t-31.5 -12t-33.5 10t-34.5 30q-2 3 -3 9q32 9 69 21.5t67 23.5q-1 -22 -3 -36.5t-4 -18.5v0zM598 149q-33 -11 -73 -23l-70 -22q-2 23 -4 52q35 10 76.5 24t74.5 26l-4 -57v0zM603 232q-35 -11 -78 -25l-75 -22l-2 52q36 10 80 25t77 27l-2 -57v0z
" />
    <glyph glyph-name="K" unicode="K" 
d="M727 975q-10 -3 -77 -23l-77 -22l-17 36l-102 -34l-36 92l-25 -5l-33 -6q-5 -5 2.5 -42t14.5 -64l-95 -32l3 -28l-152 -45l170 -802l589 195l-165 780v0zM387 994q26 12 29.5 -8.5t-13.5 -27.5q-19 -1 -23.5 13t7.5 23v0zM404 61q-6 3 -44 21l-45 21l-118 593l42 97
l51 15l3 -23l312 77l-15 31l54 16l76 -51l113 -559l-38 -102l-391 -136v0zM327 682q21 6 166 48l166 47l-7 22l-331 -95l-10 36l-87 -23l16 -103l99 24l-12 44v0zM259 641q-1 4 -5 30l-5 30l46 11l16 -58l-52 -13v0zM369 536q21 6 166 47l166 48l-6 21l-332 -94l-10 35
l-87 -22l16 -104l99 24l-12 45v0zM301 495q-1 4 -5 30l-4 29l45 12l16 -58l-52 -13v0zM405 384q21 6 167 47l166 48l-7 22l-332 -95l-10 36l-86 -23l16 -103l99 24l-13 44v0zM337 343q0 4 -4 30l-5 30l46 11l16 -58l-53 -13v0zM773 350q-20 -6 -166 -47l-165 -48l-10 36
l-87 -22l16 -104l99 24l-12 44l332 96l-7 21v0zM379 193q0 4 -4 30l-5 29l46 12l16 -59l-53 -12v0z" />
    <glyph glyph-name="L" unicode="L" 
d="M286 800q87 -12 201 -47t254 -105q19 -8 19 17t-2 32q11 38 11.5 104.5t-49.5 103.5q-55 38 -106.5 78.5t-135.5 40.5q-19 0 -49 -7q-89 -23 -108.5 -77.5t-12.5 -87.5q-85 16 -157.5 9.5t-117.5 -45.5q-4 -5 -3 -6v0q1 -2 9 -2l120 -22q80 -15 96 -17q5 0 14.5 10.5
t16.5 20.5v0zM295 506q28 11 28.5 31.5t-24.5 28.5q-43 0 -43 -32t39 -28v0zM287 561q18 -1 15.5 -8.5t-15.5 -9.5q-12 1 -12 9t12 9v0zM446 310q-17 16 -59 9.5t-70 -26.5q68 -70 167.5 -54.5t135.5 95.5q-20 12 -64 13t-110 -37v0zM601 252q5 1 40 5l40 6q3 8 5.5 19
t1.5 22l-4 86l30 3q16 55 26.5 116.5t9.5 124.5q-4 -1 -9 2q-138 69 -251 104t-200 48q-53 -52 -87 -125t-36 -165q-3 -5 13 -98.5t91 -208.5l-5 -22q-27 -15 -70 -45q61 -36 130.5 -55.5t146.5 -19.5t147 20q-1 23 -10 98l-9 85v0zM542 527q24 35 72.5 31t64.5 -41
q10 -25 -4 -13t-64 23q-52 2 -70 -14t1 14v0zM302 616q83 -20 75.5 -82t-97.5 -79q-65 5 -67 84t89 77v0zM245 406q-3 36 30 -11t111 -32q71 35 167.5 78.5t101.5 -70.5q-29 -150 -203.5 -156.5t-206.5 191.5v0zM860 251q1 9 3 70l3 70l-138 -14l8 -143l-104 -14l14 -96h95
l7 -124h102l5 124h140v146z" />
    <glyph glyph-name="M" unicode="M" 
d="M983 725q-2 39 -85.5 56t-211.5 16q-47 97 -92 158.5t-80 68.5q-36 2 -76 -68t-79 -183q-140 -19 -231 -46.5t-86 -58.5q9 -27 71 -87.5t155 -137.5q-38 -177 -45.5 -305t31.5 -138q39 -1 125 60t191 158q119 -81 207.5 -123t112.5 -19q22 31 0.5 141t-70.5 255
q72 82 117 149t46 104v0zM843 131q-22 -20 -99 16.5t-181 106.5q-92 -84 -167.5 -137.5t-109.5 -52.5q-33 9 -26.5 121t39.5 267q-82 67 -136 120t-62 77q-4 26 75.5 50.5t201.5 40.5q34 100 69.5 161t66.5 59q30 -6 69.5 -60t80.5 -139q112 1 185 -13.5t75 -49.5
q-1 -32 -40 -90.5t-103 -130.5q44 -127 62.5 -223t-0.5 -123v0z" />
    <glyph glyph-name="N" unicode="N" 
d="M983 725q-2 39 -85.5 56t-211.5 16q-47 97 -92 158.5t-80 68.5q-36 2 -76 -68t-79 -183q-140 -19 -231 -46.5t-86 -58.5q9 -27 71 -87.5t155 -137.5q-38 -177 -45.5 -305t31.5 -138q39 -1 125 60t191 158q119 -81 207.5 -123t112.5 -19q22 31 0.5 141t-70.5 255
q72 82 117 149t46 104v0zM843 131q-22 -20 -99 16.5t-181 106.5q-92 -84 -167.5 -137.5t-109.5 -52.5q-33 9 -26.5 121t39.5 267q-82 67 -136 120t-62 77q-4 26 75.5 50.5t201.5 40.5q34 100 69.5 161t66.5 59q30 -6 69.5 -60t80.5 -139q112 1 185 -13.5t75 -49.5
q-1 -32 -40 -90.5t-103 -130.5q44 -127 62.5 -223t-0.5 -123v0zM639 550q55 16 43.5 87.5t-54.5 78.5q-41 -15 -43.5 -87.5t54.5 -78.5v0zM659 686q5 -10 0.5 -15t-11.5 2q-5 9 0 14t11 -1v0zM641 650q8 15 17 10.5t10 -23.5q-2 -17 -16.5 -10.5t-10.5 23.5v0zM625 705
q17 -3 12 -32t-23 -34q-16 3 -11 31.5t22 34.5v0zM423 531q55 15 44 87t-54 78q-42 -14 -44 -87t54 -78v0zM443 666q6 -10 1 -14.5t-10.5 3t-0.5 13t10 -1.5v0zM426 630q7 16 16 11.5t10 -23.5q-2 -17 -16 -11t-10 23v0zM410 685q17 -2 11.5 -31.5t-23.5 -34.5
q-16 3 -10.5 31.5t22.5 34.5v0zM683 514q-90 -57 -194 -41.5t-112 21.5q-54 16 -7 -64.5t168 -117.5q123 -1 172.5 120.5t-27.5 81.5v0zM582 332q-50 -5 -93 18t-63 41q-10 13 44 17t100 -13q29 29 72 29.5t45 -3.5q-3 -8 -29.5 -42.5t-75.5 -46.5v0z" />
    <glyph glyph-name="O" unicode="O" 
d="M443 666q-5 7 -10 1.5t0.5 -13t10.5 -3t-1 14.5v0zM983 725q-2 39 -85.5 56t-211.5 16q-47 97 -92 158.5t-80 68.5q-36 2 -76 -68t-79 -183q-140 -19 -231 -46.5t-86 -58.5q9 -27 71 -87.5t155 -137.5q-38 -177 -45.5 -305t31.5 -138q39 -1 125 60t191 158
q119 -81 207.5 -123t112.5 -19q22 31 0.5 141t-70.5 255q72 82 117 149t46 104v0zM628 716q43 -7 54.5 -78.5t-43.5 -87.5q-57 6 -54.5 78.5t43.5 87.5v0zM413 696q43 -6 54 -78t-44 -87q-56 5 -54 78t44 87v0zM538 312q-121 37 -168 117.5t7 64.5q8 -6 112 -21.5t194 41.5
q77 40 27.5 -81.5t-172.5 -120.5v0zM614 639q18 5 23 34t-12 32q-17 -6 -22 -34.5t11 -31.5v0zM668 637q-1 19 -10 23.5t-17 -10.5q-4 -17 10.5 -23.5t16.5 10.5v0zM659 686q-6 6 -11 1t0 -14q7 -7 11.5 -2t-0.5 15v0zM452 618q-1 19 -10 23.5t-16 -11.5q-4 -17 10 -23
t16 11v0zM398 619q18 5 23.5 34.5t-11.5 31.5q-17 -6 -22.5 -34.5t10.5 -31.5v0zM570 395q-46 17 -100 13t-44 -17q20 -18 63 -41t93 -18q49 12 75.5 46.5t29.5 42.5q-2 4 -45 3.5t-72 -29.5v0z" />
    <glyph glyph-name="P" unicode="P" 
d="M983 725q-2 39 -85.5 56t-211.5 16q-47 97 -92 158.5t-80 68.5q-36 2 -76 -68t-79 -183q-140 -19 -231 -46.5t-86 -58.5q9 -27 71 -87.5t155 -137.5q-38 -177 -45.5 -305t31.5 -138q39 -1 125 60t191 158q119 -81 207.5 -123t112.5 -19q22 31 0.5 141t-70.5 255
q72 82 117 149t46 104v0z" />
    <glyph glyph-name="Q" unicode="Q" 
d="M131 590q4 -55 123.5 -126t199.5 -41q79 64 105 220.5t-73 140.5q-15 -3 -30 -7.5t-23 -7.5l-29 78q-27 70 -41 100q-27 17 -128 -12.5t-110 -78.5q10 -52 46 -119.5t41 -73.5q-36 -25 -57.5 -39.5t-23.5 -33.5v0zM1018 446q-51 13 -160.5 22t-130.5 53q-12 50 -55 163.5
t-75 166.5q-11 15 -53.5 10t-103.5 -22l8 -29q50 14 83.5 17t41.5 -8q28 -50 69.5 -153.5t42.5 -142.5q-29 -48 -219 -185t-240 -119q-80 128 -133 240.5t-53 157.5q1 13 31 33.5t79 44.5l-18 30q-43 -20 -74 -36t-44 -27q-36 -60 45 -242t135 -234q59 -35 237.5 -74.5
t264.5 -39.5q85 24 215 180t107 194v0zM729 111q-35 -15 -153 9.5t-222 55.5q3 2 7 10.5t9 11.5q104 -30 215 -52.5t144 -7.5q37 26 134.5 126.5t123.5 154.5l1 -16q-5 -41 -111.5 -151.5t-147.5 -140.5v0z" />
    <glyph glyph-name="R" unicode="R" 
d="M651 281q-17 3 -34 5l7 146q6 130 5 169q-15 25 -107 36.5t-115 -27.5q-10 -56 -6 -184.5t5 -143.5q-36 -7 -59 -17.5t-32 -24.5q-12 -43 55 -136t137 -104q86 15 169.5 131.5t-25.5 149.5v0zM773 820q-19 223 -182 203.5t-181 -138.5q-76 80 -207.5 3.5t-18.5 -205.5
q-200 13 -167.5 -158t207.5 -121q-21 -24 17 -49t94 -24q0 23 1 46q-44 0 -63 27.5t20 64.5q-216 -79 -222.5 57.5t195.5 120.5q-123 133 -19.5 199.5t182.5 -26.5q13 138 151.5 154t153.5 -211q138 64 204.5 -42t-71.5 -196q79 -55 -4.5 -116.5t-167.5 31.5q0 -29 -1 -60
q89 -108 201 -14.5t38 154.5q128 89 49 221.5t-209 78.5v0z" />
    <glyph glyph-name="S" unicode="S" 
d="M797 423q4 2 37 17l38 17l-43 164l-52 3q-17 42 -46 76l25 67l-145 87l-61 -54q-32 6 -68 7l-52 100l-162 -50v-82q-29 -12 -54 -26l-88 28l-80 -149l34 -35q-17 -44 -21 -92l-58 -29l47 -163l46 -1q21 -44 52 -83l-20 -59l147 -83l28 27q48 -19 105 -26l23 -48l163 45
l1 37q45 24 81 60l63 -22l84 146l-43 47q13 36 19 74v0zM430 143q-132 3 -220 91t-92 220q4 133 92 221t220 91q132 -3 220 -91t92 -221q-4 -132 -92 -220t-220 -91v0zM541 468q60 11 55 88.5t-50 88.5q-45 -11 -54.5 -88.5t49.5 -88.5v0zM576 610q5 -11 -1 -15.5t-12 3.5
q-4 10 2 15t11 -3v0zM581 558q-4 -18 -18.5 -10t-8.5 26q9 16 18 10t9 -26v0zM542 634q17 -5 9 -35.5t-27 -33.5q-18 5 -9.5 34.5t27.5 34.5v0zM310 468q60 11 55.5 88.5t-49.5 88.5q-46 -11 -55.5 -88.5t49.5 -88.5v0zM345 610q5 -11 -0.5 -15.5t-11.5 3.5q-5 10 1 15
t11 -3v0zM350 558q-4 -18 -18.5 -10t-8.5 26q10 16 19 10t8 -26v0zM311 634q18 -5 9.5 -35.5t-27.5 -33.5q-17 5 -8.5 34.5t26.5 34.5v0zM584 426q-101 -52 -209.5 -26t-117.5 34q-55 22 -13 -68t167 -141q131 -13 195 111t-22 90v0zM580 313q-3 -7 -35 -41.5t-85 -42.5
q-54 0 -97.5 28.5t-62.5 49.5q-9 15 48.5 14t104.5 -23q34 27 79.5 24t47.5 -9v0zM1025 825q-1 5 -6 35l-5 35l-30 -2q-14 24 -46 38l-1 40l-68 18l-16 -47q-25 -3 -44.5 -15.5t-31.5 -31.5l-49 -4l-14 -68l42 -13q2 -26 16 -49l-12 -36l57 -41l22 27q7 -2 14 -3q26 -5 48 2
l24 -22l60 37l-16 32q18 25 26 55l30 13v0zM875 725q-42 1 -70 29t-28 70t28 70t70 28t69.5 -28t27.5 -70t-27.5 -70t-69.5 -29v0zM897 808q15 -3 22.5 15.5t-2.5 25.5q-12 3 -22.5 -14.5t2.5 -26.5v0zM920 838q0 -3 -1.5 -3.5t-2 2t1.5 3t2 -1.5v0zM916 825
q-3 -4 -5.5 -0.5t1 6.5t5 1t-0.5 -7v0zM915 847q4 -3 -1.5 -9t-10.5 -5q-3 3 2 9t10 5v0zM843 834q15 -4 22 14.5t-2 25.5q-12 3 -22.5 -14t2.5 -26v0zM866 863q0 -3 -1.5 -3.5t-2 2t1.5 3t2 -1.5v0zM862 850q-3 -4 -5.5 -0.5t1 7t5 1t-0.5 -7.5v0zM861 872q4 -3 -1.5 -9
t-10.5 -5q-3 3 2 9t10 5v0zM902 794q-29 -1 -51.5 16.5t-23.5 20.5q-11 11 -11 -14.5t24 -50.5q29 -18 57.5 4.5t4.5 23.5v0zM889 768q-2 -1 -13 -6t-24 0t-20 16.5t-9 18.5q-1 4 12.5 -2t22.5 -17q11 3 21 -3t10 -6.5v-0.5z" />
    <glyph glyph-name="T" unicode="T" 
d="M977 525q-10 42 -47 43.5t-63 12.5q-19 18 -4 48.5t19 34t-15 57.5t-108 121q-85 60 -112 77.5t-69 36.5q-43 23 -27.5 43.5t21.5 21.5q-9 5 -81.5 0t-107.5 -81q-4 -27 -6.5 -49.5t-58.5 -34.5q-131 -29 -164.5 -74t-28.5 -50q2 -2 6 -29t-15 -47q-83 -72 -68 -146.5
t50 -111.5q18 -20 57.5 -43.5t91.5 -41.5l40 -261q1 -11 105.5 -44t296.5 44q2 120 11.5 176t15.5 68q139 34 203 111.5t58 117.5v0zM475 347q0 -5 -41 -28t-127 -2q-234 83 -230.5 172.5t44.5 119.5q22 21 37.5 50t11.5 79q41 -5 128 -59q54 -36 97 -63.5t124 -48.5
q-69 21 -153 84.5t-140 88.5q-42 14 -58 16v0q74 78 157.5 71.5t79.5 59.5l-1 6q14 -12 44.5 -29t84.5 -31q82 -23 110 -41.5t26 -20.5q2 2 -8.5 21.5t-63.5 36.5q-99 30 -141.5 51t-51.5 32q12 59 62.5 76t57.5 15q-14 -21 2 -38t66 -38q115 -56 184 -131.5t76 -109.5
q2 -10 -1 -17t-8 -13q-35 -10 -113.5 -12.5t-182.5 31.5q-116 40 -53 11t98 -41q48 -10 118 -15.5t117 2.5q-7 -15 -2 -51q4 -21 26.5 -27.5t49.5 -8.5q-36 -33 -144.5 -81t-260.5 -22q-168 39 -208.5 58.5t-34.5 19.5q-9 -3 49 -35.5t290 -66.5q103 -5 194 44.5t127 81.5
q40 -1 43.5 -24.5t-74.5 -101.5q-151 -128 -275 -106t-132 35v0z" />
    <glyph glyph-name="U" unicode="U" 
d="M727 912q-121 -24 -329 -62l-231 -43v0q-66 3 -123.5 -26t-36.5 -167q29 -196 77 -353.5t169 -149.5q76 12 223 44.5t329 74.5q172 40 203.5 117.5t-2.5 190.5q3 28 -57.5 204t-221.5 170v0zM735 253q-133 -25 -283 -60t-211 -37q-51 3 -79 51t-42 122q-26 89 -54 246.5
t66 183.5q56 4 87 -19.5t67 -69.5q34 -38 97.5 -7t217.5 53q157 28 246.5 0.5t129.5 -256.5q16 -93 -50.5 -140t-191.5 -67v0z" />
    <glyph glyph-name="V" unicode="V" 
d="M1023 217q-78 172 -142 338.5t-68 178.5q-8 9 -128.5 27.5t-261.5 -55.5l-29 24q-53 56 -150.5 143.5t-169.5 117.5l-74 -78q3 -42 21 -347.5t16 -372.5q121 -13 261.5 -45t190.5 -83q6 -7 9 -15q48 -25 72.5 -15t24.5 13q15 8 163.5 59t248.5 53q15 24 16 40t0.5 16.5z
M166 280q0 110 -27.5 369t-31.5 291q66 -28 148.5 -103.5t161.5 -170.5l124 -531q-56 46 -168.5 87t-206.5 58v0zM570 116q-8 34 -69 278l-68 279q117 78 236.5 64.5t129.5 -21.5l186 -497q-6 3 -125 -12.5t-290 -90.5v0zM410 654q-9 11 -100 101t-159 125l35 -289l265 -161
l-41 224v0zM279 504q-67 30 -72 -19t38 -80q48 -20 73.5 17.5t-39.5 81.5v0zM328 394q8 -4 67 -31l67 -31l-2 23l-117 56zM477 277q-16 6 -130 50l-129 51l-2 -16q-2 -13 0 -10q19 -2 134.5 -44t131.5 -48l-5 17v0zM211 307q0 -1 -1 -9v-10q9 -1 107.5 -26.5t178.5 -73.5
l-12 29q-2 5 -2 4q-96 42 -180.5 64t-90.5 22v0zM470 646q0 1 5 -18q98 70 198 67.5t108 -8.5l-1 2l-6 11q-129 25 -215 -10.5t-89 -43.5v0zM482 601q0 2 5 -18q99 71 201 68.5t110 -8.5l-1 2l-6 12q-132 25 -219 -11.5t-90 -44.5v0zM494 555q1 1 5 -19q101 74 204 71
t112 -9l-1 2l-6 12q-134 27 -222 -11t-92 -46v0zM507 508l1.5 -4.5t3.5 -15.5q102 76 207 73t113 -9q0 -1 -1 2l-6 12q-136 27 -225 -11.5t-93 -46.5v0zM520 459l1.5 -4.5t4.5 -16.5q102 78 208.5 75t115.5 -9q0 -1 -1 2l-6 12q-139 29 -229 -11t-94 -48v0zM534 409l1.5 -5
t3.5 -16q104 80 212.5 76.5t117.5 -10.5l-1 2l-7 14q-140 29 -232 -12t-95 -49v0zM548 357l1.5 -5t4.5 -17q105 82 215 78.5t118 -9.5q1 -1 -1 2l-6 13q-143 31 -236 -11.5t-96 -50.5v0zM563 303l1.5 -5t4.5 -17q106 85 217.5 81t120.5 -11q1 -1 -1 2l-7 14
q-145 32 -239 -11.5t-97 -52.5v0zM578 247q0 1 1.5 -4t3.5 -18q108 87 222 83t123 -11q0 -1 -1 2l-8 14q-147 33 -242.5 -11.5t-98.5 -54.5v0zM593 191l1.5 -5.5t4.5 -18.5q109 90 224.5 85.5t125.5 -11.5q0 -1 -1 2l-8 15q-150 34 -247 -12t-100 -55v0z" />
    <glyph glyph-name="W" unicode="W" 
d="M475 337q-1 -3 -31.5 -23t-78.5 -24q-50 0 -87.5 13.5t-39.5 15.5l41 -266q1 -11 107.5 -44.5t302.5 44.5q2 122 12 179.5t16 69.5q-129 -15 -186 7.5t-56 27.5v0zM917 555q-37 -33 -129.5 -83t-198.5 -45q-236 34 -295 67.5t-50 35.5q-7 1 35 -19t213 -60
q155 -27 266 22t147 83q-27 2 -50 8.5t-28 28.5q-5 36 3 52q-48 -8 -119.5 -2.5t-121.5 15.5q-35 12 -99 42t53 -11q107 -35 187 -32.5t116 13.5q5 6 8 13t1 17q-7 35 -77.5 112t-188.5 134q-50 22 -66.5 39t-2.5 39q-7 2 -58.5 -15.5t-63.5 -78.5q9 -10 52.5 -31.5
t144.5 -52.5q54 -17 64.5 -37t8.5 -22q2 2 -26.5 21t-111.5 42q-55 15 -86.5 32t-45.5 30l1 -7q4 -67 -81 -60.5t-161 -72.5v-1q17 -1 59 -16q57 -25 143 -90t156 -86q-82 21 -126 49t-99 65q-89 55 -131 60q4 -51 -11.5 -80.5t-38.5 -51.5q-41 -30 -45 -121.5t235 -176.5
q88 -21 130 2.5t42 28.5q7 -14 134 -36t281 109q80 80 76 103.5t-45 24.5v0z" />
    <glyph glyph-name="X" unicode="X" 
d="M63 835q90 3 434.5 17.5t451.5 17.5q63 1 72 -27.5t-16 -73.5l-151 -276q-115 -211 -165 -295q-38 -58 -75.5 -40t-72.5 65q-42 49 -111 127.5t-96 118.5q-23 32 -17.5 55t56.5 45q71 28 214.5 90.5t157.5 84.5q3 17 -92.5 -5t-364.5 -94q-37 -12 -70 -9t-82.5 39.5
t-79.5 60.5l-45 36q-16 13 -8 36t60 27v0z" />
    <glyph glyph-name="Y" unicode="Y" 
d="M512 1006q-218 -6 -362.5 -150.5t-149.5 -361.5q2 -163 88.5 -288.5t228.5 -185.5q12 21 20 51.5t8 73.5q-8 13 -16.5 18.5t-15.5 -1.5q-19 -21 -61 -27t-79 34q-31 45 -24 72.5t14 12.5q4 -22 21.5 -49.5t55.5 12.5q33 38 64 45.5t56 -11.5q9 29 19 50t18 34
q-153 13 -195.5 64.5t-37.5 142.5q1 73 52 114q-8 36 -10 80t11 85q21 41 74 -4.5t94 -98.5q58 8 124 8h2q66 0 124 -8q41 53 94 98.5t74 4.5q13 -41 11 -85t-10 -80q51 -41 52 -114q6 -91 -37 -142.5t-196 -64.5q16 -24 33 -72t19 -117q0 -44 8.5 -75.5t20.5 -51.5
q143 59 230.5 185t89.5 290q-5 217 -149.5 361.5t-362.5 150.5v0z" />
    <glyph glyph-name="Z" unicode="Z" 
d="M645 554q13 -1 100 -9l99 -9l6 10l-198 19zM644 522q11 -2 87 -11l87 -12l4 12l-175 22zM634 501q0 -1 -3 -9l-3 -8l124 -18l-2 21zM927 637q-22 1 -33 -7l-73 7l-2 -4l72 -6q-3 -3 -5 -6l-68 8l-2 -5l68 -7l-2 -6l-67 8l-1 -6l67 -6l1 -6l-69 7v-6l70 -6l1 -5l-73 6v-6
l75 -4q9 -15 31 -18q36 2 38 31t-28 37v0zM912 577q-12 3 -17 9h9v3l-12 1q-2 3 -3 5l16 -1l1 4l-18 2v6l18 -2l1 4l-18 2l2 6l17 -2v4l-14 2l6 6l11 -1l1 3l-8 1q10 5 23 2q23 -11 21.5 -35.5t-36.5 -18.5v0zM805 690q-25 35 -71 53l2 68q1 33 1 57q-11 54 -91.5 66.5
t-93.5 -5.5q-8 -67 13.5 -83.5t103.5 -28.5q11 -6 14.5 -32t0.5 -29q-16 2 -172 20t-256 20q-171 -3 -218.5 -100.5t-36.5 -254.5q7 -25 114 -49t236 -40v-247l79 -20l28 25v230q36 -4 65 -5.5t47 -0.5q44 1 91.5 20t88.5 43l175 -19l99 296l-219 16v0zM722 733
q22 -4 37 -21.5t16 -20.5l-121 8q1 2 23 17t45 17v0zM595 355q-10 3 -21.5 27t-12.5 28l159 -11l-58 -22q-51 -18 -67 -22v0zM908 401q-21 2 -174 18l-174 19q-4 34 7 106.5t60 131.5l1 1l356 -25l-76 -251v0z" />
    <glyph glyph-name="a" unicode="a" 
d="M1024 633q-3 3 -28 26l-28 25l56 89l-62 -20q-14 43 -43.5 76t-75.5 54q-103 42 -196.5 -33.5t-115.5 -250.5q-16 3 -144 95t-176 241q-81 -159 -80.5 -369.5t240.5 -351.5q-61 -54 -181 -60t-190 29q127 -108 392 -91t427 199q70 91 109 173t45 161l51 8v0zM722 680
q-38 1 -45 35t33 48q53 6 52 -33.5t-40 -49.5v0zM859 688q-30 7 -29 41.5t38 32.5q32 -10 27 -40.5t-36 -33.5v0z" />
    <glyph glyph-name="b" unicode="b" 
d="M882 660q3 21 29 168l30 167l-832 29l-25 -317l44 -239l-28 -27v-357l811 -84l21 429l-29 20l-21 211v0zM137 986q48 -1 383 -15l383 -15l-55 -291l-738 44l27 277v0zM379 216q10 -1 76 -5l75 -6l-35 -19l-88 6l-28 24v0zM371 223q-2 2 -14 12l-14 12l235 -16l-35 -19
l-172 11v0zM334 255q-2 1 -14 12l-14 12l320 -22l-35 -19l-257 17v0zM298 286q-2 2 -14 12l-14 13l403 -29l-34 -18l-341 22v0zM261 318q-1 1 -14 12l-14 12l488 -34l-34 -18l-426 28v0zM225 349q-2 2 -14 12l-15 13l572 -40l-33 -18l-510 33v0zM783 342q-37 2 -297 19
l-297 20l-16 13l639 -36l-29 -16v0zM416 184q4 0 33 -2l34 -2l-38 -21l-29 25v0zM831 368q-40 3 -323 21l-323 21l-1 -6l399 -28l-415 22l-7 6l-51 301l738 -46l27 -267l-44 -24v0zM270 858q7 2 20 4l14 3q3 0 3 3l-1 6q-1 3 -4 3l-23 -4l-2 11l19 3q4 1 3 4l-1 5q-1 3 -4 2
l-19 -2l-1 9l22 4q4 1 3 3l-1 7q0 3 -4 2l-34 -4q-4 0 -3 -4l9 -52q0 -4 4 -3v0zM313 861h16l19 1q3 0 3 2v7q0 3 -3 3l-23 1l-1 41q0 3 -3 3h-9q-2 0 -2 -3l-1 -51q0 -4 4 -4v0zM187 840q2 -6 4 -7t5.5 -0.5t6 2t1.5 7.5l-3 32l21 3q8 1 14 5.5t10 10.5t5.5 13t0.5 14.5
t-5 14t-9.5 11.5t-12.5 7t-14 1l-37 -8q-7 -1 -8 -4.5t1 -13.5l2 -7h-11q-6 -1 -7.5 -6.5t-1 -9t3.5 -8.5t9 -4l13 3l12 -56v0zM212 931q2 0 4.5 -0.5t4.5 -2t3.5 -4.5t1.5 -7q1 -7 -1.5 -11.5t-6.5 -5.5l-21 -3l-1 5l15 3q3 1 4.5 4t1.5 7q-2 7 -9 8l-15 -1v5l19 3v0z
M357 864q7 -1 19 -3l15 -3q3 0 4 3l1 6q1 3 -3 4l-23 4l2 11l19 -4q4 0 4 3l1 5q1 3 -3 4l-18 4l2 9l22 -4q4 -1 4 2l1 7q1 2 -3 3l-33 8q-4 1 -5 -3l-9 -52q-1 -3 3 -4v0zM709 905q8 0 65 -2l65 -2l2 8l-131 7zM705 886q8 0 65 -2l65 -3l2 8l-131 8zM702 866q8 0 65 -2
l65 -2l2 8l-132 7v-11zM698 847q8 -1 65 -3l65 -2l2 8l-131 7zM694 827q9 0 66 -2l65 -3l2 8l-132 8zM167 739q16 -1 131 -8l132 -7l4 9l-261 14zM322 752q7 0 55 -3l55 -3l3 9l-107 5zM817 634q-34 2 -274 18l-273 18l-1 -6l549 -39zM821 605q-42 2 -331 21l-331 21l-2 -6
l665 -46zM824 575q-41 2 -331 21l-331 22l-1 -6l664 -47zM828 545q-42 3 -331 21l-331 22l-1 -6l664 -47zM831 515q-41 3 -331 22l-331 21l-1 -6l665 -46zM530 506q-22 1 -178 11l-179 11l-1 -6l360 -26zM290 485q34 -2 275 -19l275 -20l-1 10l-548 35zM842 426
q-41 3 -331 21l-331 22l-1 -6l664 -47zM184 439l-1 -3l-1 -3l665 -46l-1 9z" />
    <glyph glyph-name="c" unicode="c" 
d="M435 554q-2 12 -3 24q-72 19 -117 75t-46 134q2 91 62.5 151.5t152.5 63.5q91 -3 152 -63.5t63 -151.5q-1 -66 -34.5 -117t-88.5 -78l2 -23q64 28 103 85.5t40 132.5q-2 100 -69 167t-168 70q-101 -3 -168 -70t-69 -167q1 -88 53 -151t135 -82v0zM474 835q37 9 63 -58.5
t37 -165.5q49 25 78 71t29 105q-2 83 -57.5 139t-139.5 58q-84 -2 -139.5 -58t-57.5 -139q1 -69 40.5 -120t102.5 -70q-11 86 -5.5 153.5t49.5 84.5v0zM759 386q-50 50 -121.5 68.5t-78.5 66.5q-1 110 -22 205t-58 89q-50 -30 -37 -149.5t14 -214.5q-2 -35 -7.5 -53.5
t-17.5 -13.5q-39 27 -55 60.5t-47 24.5q-53 -48 17 -215.5t85 -189.5l244 -64q-1 -2 3 6l25 44q27 48 59.5 160t-3.5 176v0z" />
    <glyph glyph-name="d" unicode="d" 
d="M979 891q-18 -7 -142 -54l-142 -54l-307 108l-388 -85l63 -672l316 58l343 -58l302 72l-45 685v0zM402 630q29 9 61.5 8.5t64.5 -14.5l78 -42q38 -21 85 -19l4 -144q-24 -20 -50 -43q-15 -2 -96 -43t-45 -98l-98 19l-4 376v0zM400 824q18 -6 143 -50l143 -50l3 -96
q-27 1 -52.5 10.5t-44.5 26.5q-37 31 -88 35.5t-102 -8.5l-2 132v0zM710 630q0 6 -2 48l-2 49l87 33q11 -62 -14.5 -93.5t-68.5 -36.5v0zM941 489q-48 23 -104.5 8t-119.5 -62l-5 131q32 7 72 31q68 48 72 101.5t-10 81.5l72 27l23 -318v0zM372 827q0 -9 1 -71l1 -72
q-37 -13 -66 -31q-56 -41 -69 -81.5t-68 -45.5q-53 -1 -79 6l-21 229l301 66v0zM123 199q-2 16 -12 129l-12 130q144 -10 180 44.5t46 80.5q19 21 50 36l7 -365l-259 -55v0zM525 381q2 3 13 24l12 23l48 -26l33 54l-50 30l29 55l-60 21l-22 -45l-55 32l-33 -62l58 -31
l-25 -52z" />
    <glyph glyph-name="e" unicode="e" 
d="M389 160q107 -39 211 17t53 146q-59 80 -65.5 61t-6.5 -61q-37 -95 -122.5 -78t-23.5 105q-1 46 -62 -43t16 -147v0zM460 266q35 -13 69.5 5.5t17.5 48.5q-19 26 -21 20t-2 -20q-13 -32 -41 -26t-8 35q0 15 -20 -14.5t5 -48.5v0zM763 323q-140 157 -114 85.5t46 -116.5
q-6 -204 -236.5 -187.5t-87.5 247.5q0 108 -119 -42.5t55 -272.5q206 -78 396 12t60 274v0zM500 318q33 30 201.5 395t-201.5 285q-337 -158 -191.5 -408t191.5 -272v0zM472 900q99 30 97.5 -46.5t-73.5 -111.5q-73 -16 -91.5 48t67.5 110v0z" />
    <glyph glyph-name="f" unicode="f" 
d="M849 899q-58 40 -112 82.5t-142 42.5q-21 0 -52 -7q-93 -25 -113.5 -82t-13.5 -92q-89 17 -165 10t-123 -48q-5 -4 -4 -6v0q1 -2 10 -2l126 -23q84 -15 100 -18q6 1 15.5 12t16.5 21q92 -12 212 -49.5t267 -110.5q20 -8 19.5 18.5t-2.5 32.5q12 41 12.5 110.5
t-51.5 108.5v0zM403 481q29 10 29.5 32t-26.5 30q-44 0 -44 -33.5t41 -28.5v0zM394 538q18 -1 16 -9t-16 -10q-13 1 -12.5 9t12.5 10v0zM561 274q-17 18 -61.5 10.5t-74.5 -28.5q72 -73 176.5 -57t142.5 100q-21 13 -67 14t-116 -39v0zM880 614q-4 0 -9 3q-145 72 -264 109
t-209 50q-57 -54 -92.5 -131t-37.5 -173q-4 -6 13 -104t96 -218l-6 -24q-13 -8 -32 -20t-41 -27q65 -38 138 -58.5t152 -20.5q68 0 131 15t120 43q-30 22 -50 34q-1 29 3 58q19 91 53 213t35 251v0zM409 596q87 -21 79.5 -86t-102.5 -84q-68 6 -70 89t93 81v0zM350 375
q-3 38 31.5 -11.5t116.5 -33.5q75 36 176 82t106 -73q-30 -158 -213.5 -165t-216.5 201v0zM734 502q-54 2 -73 -14.5t1 14.5q25 37 75.5 32.5t68.5 -43.5q10 -25 -4.5 -12.5t-67.5 23.5v0z" />
    <glyph glyph-name="g" unicode="g" 
d="M614 406q-65 42 -121.5 111t-24.5 143q20 29 63.5 -38t107.5 -118q122 -65 181 -38t49 -8q-42 -134 -132 -108.5t-123 56.5v0zM727 797q-145 0 -254.5 -36.5t-176.5 -107.5q-41 -45 -57 -83.5t-18 -53.5q6 -7 24.5 -22t52.5 -33q68 -35 331 -177l394 -213q-8 102 -26 209
t-61 267q-13 47 -44 121.5t-52 123.5h-7q-55 5 -106 5v0zM879 425v-1l-7 -17l-10 -19l-15 -21l-12 -14q-110 -78 -259.5 49.5t-152.5 204.5l4 14l4 13l5 13l6 13l12 20q113 117 283 13t142 -268v0v0zM196 504q0 1 -2 3l-1 2l1 5q-2 5 13.5 51t67.5 105q93 93 218 124.5
t234 29.5q51 0 105 -5l8 48q5 28 -13 58q-199 180 -588 26.5t-124 -500.5l830 -438q5 -4 39.5 -10t39.5 37l-390 210q-276 149 -348 188q-48 26 -69 45t-21 20v1z" />
    <glyph glyph-name="h" unicode="h" 
d="M964 674q-3 -67 -26.5 -127t-65.5 -107t-99.5 -73.5t-126.5 -24.5l-194 7l-5 -281q-6 -50 -28 -60t-53 -7q-16 -1 -32.5 1t-26.5 7q-18 10 -21 63l-24 516l-114 -7q-50 2 -69 38t-18 68q0 34 21.5 78t77.5 38l93 -11l-4 70q-7 91 8 120t77 29l328 14q68 -3 124.5 -34.5
t96.5 -81.5t61 -111.5t20 -123.5v0zM708 579q30 33 31 102q2 36 -6 61.5t-22 43t-33 26t-38 9.5l-173 5l-5 -58l130 -15q27 -2 46 -18.5t18 -45.5t-21 -53t-48 -24l-128 -9v-52l180 -6q40 -1 69 34v0z" />
    <glyph glyph-name="i" unicode="i" 
d="M938 742q9 -64 -3.5 -125t-44 -112.5t-81.5 -86t-115 -44.5l-184 -26l32 -268q3 -48 -16 -61t-49 -15q-28 -7 -47 -1t-30 56l-110 483l-106 -26q-48 -7 -72 24.5t-28 61.5q-6 32 7 77.5t67 49.5l89 5l-15 65q-22 85 -13 115t68 40l307 68q65 9 123.5 -11t104.5 -60.5
t76.5 -95t39.5 -113.5v0zM713 609q22 37 12 102q-5 34 -16.5 57t-28 37t-35.5 19t-37 2l-164 -24l5 -56l125 8q26 3 46.5 -9.5t24.5 -40t-11 -53.5t-41 -31l-119 -30l8 -49l171 25q38 5 60 43v0z" />
    <glyph glyph-name="j" unicode="j" 
d="M925 837q-117 238 -472.5 146t-372.5 -288q33 -177 58.5 -257.5t26.5 -79.5l-165 -170l212 24q-5 -15 51 -109t234 -80q452 59 508 219.5t-80 594.5v0zM555 157q-71 21 -62.5 86t93.5 65q82 -19 63 -86t-94 -65v0zM497 718q-33 -57 -99.5 -64t-77.5 54q-3 89 84 150.5
t263 -3.5q160 -77 110 -176t-133 -154q-56 -55 -37.5 -110t-42.5 -40q-70 23 -94 85t47 115q140 116 103.5 207.5t-123.5 -64.5v0z" />
    <glyph glyph-name="k" unicode="k" 
d="M925 837q-117 238 -472.5 146t-372.5 -288q33 -177 58.5 -257.5t26.5 -79.5l-165 -170l212 24q-5 -15 51 -109t234 -80q452 59 508 219.5t-80 594.5v0zM528 876q100 5 86.5 -181t-45.5 -280q-45 -40 -118.5 172t77.5 289v0zM626 156q-76 -4 -89.5 61.5t68.5 94.5
q85 9 89.5 -62.5t-68.5 -93.5v0z" />
    <glyph glyph-name="l" unicode="l" 
d="M491.104 1024h41.7969q30.5793 -2.78338 33.1279 -3.03125q57.7786 -5.6217 112.565 -24.7842q145.773 -50.8672 239.946 -173.293q91.2227 -119.048 103.523 -268.817q0.156078 -1.86308 1.93555 -22.2236v-39.7354q-0.579666 -3.02138 -0.845703 -6.08008
q-1.77744 -44.6496 -12.0059 -88.1562q-38.0631 -162.666 -162.429 -271.338q-126.467 -110.478 -294.64 -124.668q-1.19924 -0.0962774 -21.1787 -1.92969h-41.7969q-4.91483 0.834168 -5.0459 0.839844q-57.7616 2.49806 -113.332 18.4658
q-146.805 42.0291 -246.106 155.929q-110.425 126.711 -124.69 294.696q-0.173399 2.04054 -1.92969 21.2246v41.7969q0.831583 4.89959 0.839844 5.1084q1.74096 44.6429 12 88.1396q40.3857 171.679 175.621 282.391q122.456 100.248 281.459 113.53
q4.16848 0.355107 12.06 1.08931q7.89156 0.734207 9.12453 0.846233zM439.618 753.962q-74.7154 0 -125.797 -7.27148q-28.3655 -4.03928 -100.475 -17.6768q-20.8481 -3.93638 -28.752 -10.0303q-23.1452 -17.8574 -21.5078 -47.8135q1.08189 -19.8207 17.5445 -32.8705
t35.9506 -9.47615q8.86566 1.62516 25.1845 5.2445q16.3189 3.61935 23.1621 4.97327q60.4687 11.8446 121.995 14.9512q69.8375 3.72019 127.722 -3.08203q59.5821 -7.00912 94.7471 -14.0039q105.387 -20.9793 208.964 -71.9785q9.64353 -4.71313 20.333 -5.61914
q18.291 -1.40747 35.127 17.3301q17.6229 19.6048 13.2529 42.7621q-4.36994 23.1573 -27.9326 34.8307q-137.508 68.1182 -289.412 89.9609q-64.7304 9.15697 -130.106 9.76953zM192.32 471.026q-0.114109 -23.4977 15.6332 -36.3961q15.7473 -12.8984 36.8746 -7.34118
q77.1133 20.352 151.563 23.8418q77.3015 3.64133 150.332 -8.32227q91.4625 -14.8201 175.818 -53.1377q5.9829 -2.71963 18.2926 -8.83525q12.3097 -6.11562 18.7923 -9.01729q21.8196 -9.76687 36.0176 6.5791q9.05117 10.4665 15.8379 22.5352
q10.2299 18.2462 5.1499 34.7428q-5.08004 16.4966 -23.7573 26.1039q-169.133 86.8115 -360.41 86.8115q-47.2568 0 -84.6016 -3.97949q-57.0527 -6.10077 -112.656 -20.2139q-15.6674 -4.00784 -20.748 -7.6748q-19.0098 -13.7058 -22.1387 -45.6963zM420.631 357.235
q-52.7513 -3.69304 -56.6914 -4.05273q-57.2751 -5.22831 -118.072 -24.1768q-5.91514 -1.84458 -9.08203 -5.71094q-21.873 -26.4141 -14.3105 -58.3711q2.96607 -12.5265 16.16 -20.0794q13.194 -7.55287 29.962 -2.24091q64.0304 20.2854 134.533 23.5918
q62.1171 2.91021 120.127 -6.92578q65.2321 -11.0557 117.879 -33.3438q3.47662 -1.47206 61.6641 -29.0293q15.1519 -7.15596 29.9646 -0.0780029q14.8127 7.07796 18.7512 23.3514q3.50419 14.4775 -0.800781 32.0156q-5.21542 21.4162 -18.7324 28.6777
q-139.54 75.0931 -311.352 76.3721z" />
    <glyph glyph-name="m" unicode="m" 
d="M580.255 151.664q0 98.3848 0.125 118.06q0.0292969 4.86035 -1.41602 6.14844q-1.44629 1.28809 -6.24316 0.00292969q-63.9502 -17.1768 -126.677 -0.375977q-4.40039 1.17969 -5.53809 -0.111328q-1.1377 -1.29102 -1.13281 -5.63281
q0.181641 -116.952 0.0693359 -233.91q0 -16.5068 -10.332 -26.8027q-10.333 -10.2959 -26.2705 -8.78516q-125.934 11.9072 -206.507 76.4824q-64.4189 51.5889 -79.292 137.753q-13.8867 80.4678 -84.0176 145.08q-17.9043 16.3516 -38.3418 29.4121
q-15.5547 10.0156 -15.6816 26.7578q-1.01855 165.487 59.8115 292.527q115.198 240.614 373.747 304.054q117.824 28.9102 245.355 -13.9805q123.676 -41.6533 214.643 -133.516q102.44 -103.445 143.229 -251.238q19.6035 -71.0049 23.7793 -149.436
q0.341797 -6.38477 0.558594 -13.6172q0.216797 -7.23242 0.407227 -15.958q0.19043 -8.72559 0.341797 -13.6416q0.650391 -21.2549 -18.1787 -33.6172q-58.3936 -38.3389 -92.8652 -98.1279q-20.4199 -35.415 -28.9238 -82.5156q-17.2695 -95.5713 -107.303 -151.169
q-62.9082 -38.8496 -151.244 -52.5098q-19.2734 -2.98926 -27.6533 -2.97168q-14.6094 0.0283203 -24.5 9.86426q-9.89062 9.83691 -9.91797 24.4717q-0.0146484 5.70117 -0.03125 117.303zM648.909 194.311q0 -93.3799 -0.0810547 -112.903q0 -7.8418 7.07715 -6.25781
q58.8525 12.9697 99.6553 37.4971q68.1924 40.9775 79.1045 112.158q4.47168 29.2725 17.5723 61.1143q35.1553 85.498 114.354 145.9q5.99707 4.57812 5.41309 10.9258q-0.116211 1.28027 -1.35742 23.3975q-4.92773 87.8945 -32.8848 166.852
q-35.9482 101.657 -107.196 176.595q-4.33789 4.54004 -5.58984 4.34375q-1.25098 -0.195312 -4.19141 -5.82617q-25.5879 -49.0547 -51.207 -98.085q-3.02734 -5.53223 -3.07227 -11.8398q-0.142578 -20.0996 -0.582031 -64.5918q-0.438477 -44.4932 -0.582031 -68.0732
q-0.273438 -43.8555 -10.4316 -83.3604q-27.5273 -107.05 -102.503 -166.663q-3.5166 -2.79883 -3.50391 -9.70605q0.0185547 -55.7637 0.00585938 -111.477zM251.721 619.684h-0.325195v78.4424q0 6.21875 -2.24707 10.5752q-35.5957 69.1875 -51.3701 100.45
q-3.17578 6.29297 -8.13477 1.06348q-18.1982 -19.127 -34.1738 -40.1562q-101.373 -134.628 -107.797 -328.659q-0.172852 -5.32812 4.78125 -9.03613q32.4551 -24.2012 58.748 -54.9805q59.4453 -69.748 73.2158 -150.344q10.5371 -61.8906 57.4404 -98.873
q46.1055 -36.3711 122.578 -53.1914q6.45801 -1.40723 6.45801 6.3457q-0.131836 112.171 0 224.335q0 5.27539 -4.24316 8.60449q-107.632 85.5049 -114.768 235.788q-0.163086 3.42871 -0.163086 69.6357zM509.473 678.57q-146.204 0 -181.782 0.125
q-4.85156 0 -6.61621 -1.73047q-1.76367 -1.72949 -1.69434 -6.56152q0.282227 -20.5684 0.522461 -59.5869q0.240234 -39.0195 0.454102 -56.9326q0.759766 -63.958 31.3389 -118.429q51.4004 -91.5518 143.034 -98.7236q77.3301 -6.04883 129.336 45.0566
q63.8984 62.748 71.9023 164.805q1.41895 18.1123 1.72852 38.3955q0.30957 20.2822 0.0976562 45.4893q-0.210938 25.2061 -0.0361328 38.4746q0.09375 7.19727 -1.10742 8.41699q-1.2002 1.21973 -8.31738 1.21973zM508.56 746.874q97.8408 0 195.688 -0.119141
q7.48926 0 10.7822 6.39551q26.1006 50.8193 52.834 101.319q4.03613 7.61328 -2.65918 12.3906q-54.8828 39.125 -114.8 61.001q-92.042 33.6221 -171.613 25.5322q-120.253 -12.2354 -226.013 -87.8662q-5.21387 -3.72852 -1.79004 -10.3438
q33.0176 -63.7871 51.6963 -101.082q3.70508 -7.40137 12.3838 -7.36523q40.5957 0.137695 193.491 0.137695z" />
    <glyph glyph-name="n" unicode="n" 
d="M933.098 0q-27.4107 8.7547 -28.8633 9.51367q-42.0822 21.9709 -44.4414 70.3398q-3.65162 75.1442 -4.37207 82.3223q-12.1189 121.711 -61.8496 233.454q-68.6426 154.626 -195.005 267.164q-149.999 133.402 -345.92 178.008q-62.6584 14.2709 -122.634 17.1357
q-27.7828 1.31626 -49.5527 1.81934q-30.488 0.723321 -52.9762 20.7767q-22.4883 20.0533 -26.556 50.2058q-0.324809 1.23047 -0.927734 2.35254v16.7178q0.568475 1.69355 0.952148 3.44434q7.71155 46.5934 50.8564 64.5791q1.14692 0.476843 22.3818 6.16699h35.5215
q28.0383 -1.87392 29.1055 -1.92871q64.3676 -3.26999 132.19 -17.124q113.799 -23.0876 218.338 -73.6377q197.533 -95.626 333.44 -268.019q107.183 -136.071 158.762 -301.636q23.1473 -74.2687 32.0527 -141.983q2.25803 -17.1609 8.2832 -78.8291
q0.166216 -1.68909 2.0918 -31.1436v-35.5273q-0.56815 -1.43079 -0.90918 -2.94043q-7.02614 -45.809 -49.4385 -64.5791q-1.1551 -0.51249 -23.8359 -6.6709zM548.57 0q-25.3896 7.56654 -26.6436 8.17969q-46.7253 22.8445 -47.2188 76.125
q-0.621494 68.6673 -21.332 125.241q-70.0842 191.455 -265.642 250.748q-47.0917 14.2713 -98.1973 14.1592q-36.4592 -0.0701357 -59.2549 18.8525q-24.9017 20.6774 -29.3545 52.3545q-0.338427 1.49582 -0.927734 2.91016v16.7178q2.59303 11.7269 2.69824 12.1279
q7.29555 27.6952 29.355 44.753q22.0595 17.0578 50.7231 16.9394q165.581 -0.816734 301.896 -89.5674q142.978 -93.1094 210.364 -250.294q29.7767 -69.2821 38.1172 -137.993q4.52047 -37.2988 5.80273 -76.9316q1.02875 -31.7804 -19.3227 -55.4537
q-20.3515 -23.6733 -51.9693 -27.9828q-1.236 -0.313022 -2.37695 -0.885742h-16.7178zM74.1904 1024q-21.2349 -5.69015 -22.3818 -6.16699q-43.1449 -17.9857 -50.8564 -64.5791q-0.383673 -1.75078 -0.952148 -3.44434v74.1904h74.1904zM949.815 0
q22.593 6.1172 23.8369 6.66992q42.4123 18.7701 49.4385 64.5791q0.340771 1.50997 0.90918 2.94141v-74.1846zM147.41 24.9824q-50.8391 0 -86.6398 35.8007t-35.8007 86.3722q0.00639996 0.535381 0.00683594 0.630859q0.0725024 50.8937 36.0715 86.8744
q35.999 35.9806 86.6892 35.8444q50.6893 -0.136972 86.7565 -36.2962q36.0672 -36.1592 35.9808 -86.7683q-0.0915488 -50.7876 -36.1318 -86.6477q-36.0403 -35.8601 -86.9326 -35.8103z" />
    <glyph glyph-name="o" unicode="o" 
d="M733.424 0q-340.833 9.94737 -379.616 11.5869q-69.667 2.93324 -167.145 16.2041q-64.8049 8.84976 -107.341 49.6075q-42.5361 40.7577 -53.4285 105.214q-11.8241 69.838 -20.1289 179.354q-7.41405 97.5388 -5.18359 160.969q4.21724 120.212 16.8135 273.479
q6.10134 74.3995 33.2441 117.002q49.6466 77.9221 144.58 89.8184q142.995 17.9228 344.049 19.6328q276.822 2.21785 424.206 -0.765625q84.2083 -1.7017 279.202 -16.8271q69.8756 -5.41241 111.491 -31.8994q67.891 -43.2128 84.9883 -130.953
q19.2004 -98.7512 22.168 -223.152q2.90509 -121.75 -0.155273 -212.032q-5.35181 -155.387 -27.6924 -245.051q-13.2384 -53.1029 -53.8267 -90.2426q-40.5883 -37.1398 -94.0395 -43.7281q-107.612 -13.2269 -199.61 -17.3516q-30.0591 -1.34018 -352.575 -10.8643z
M585.897 734.217v-440.34l382.321 219.724z" />
    <glyph glyph-name="p" unicode="p" 
d="M76.8037 1024l69.6309 -70.0645q-115.896 -120.228 -115.576 -281.703q0.331055 -160.889 115.854 -280.607l-70.6729 -69.0898q-95.791 90.3516 -129.992 220.48q-34.2021 130.129 0.446289 260.229q34.6475 130.101 130.311 220.756zM935.86 321.507l-70.5381 69.7803
q115.929 120.426 116.01 281.527q0.0791016 160.316 -115.035 280.655l70.125 68.7578q67.3779 -61.5 105.155 -151.07t41.0762 -184.958q3.29883 -95.3867 -33.9482 -193.17q-37.2461 -97.7822 -112.845 -171.522zM445.791 517.116h122.502
q-61.1709 -464.695 -68.0752 -517.116h-122.848q13.6719 103.321 68.4209 517.116zM195.809 905.847l66.8652 -68.5215q-65.4648 -68.0088 -66.1865 -162.021q-0.72168 -94.0127 66.0645 -166.628l-69.502 -64.9307q-58.5781 53.0938 -82.5098 135.261
q-23.9326 82.168 -2.74902 171.875t88.0176 154.966zM749.145 836.54l67.6357 68.6445q64.0518 -61.2168 86.4277 -147.829q22.375 -86.6123 -0.730469 -171.907q-23.1064 -85.2939 -85.6973 -144.591q-4.70215 3.7666 -5.01172 4.05762q-8.46094 7.99707 -30.5791 28.9111
t-34.4326 32.5498q69.291 75.2568 68.752 168.143q-0.538086 92.1201 -66.3643 162.021zM621.028 672.213q-0.198242 -46.7256 -32.9961 -78.9717q-32.7988 -32.2461 -79.7461 -31.8701q-45.5156 0.359375 -77.9717 33.6084q-32.4551 33.25 -31.9834 79.0322
q0.476562 45.9131 33.4785 78.2295q33.002 32.3174 78.9658 31.8818q46.4199 -0.447266 78.4355 -32.9434t31.8174 -78.9668zM309.498 793.727q0.931641 -0.882812 3.26855 -3.04297q2.33691 -2.16016 3.43457 -3.25391q2.93652 -2.9209 10.4639 -9.01953
q7.52734 -6.09961 12.0186 -11.0684t5.92383 -10.2598q1.20312 -4.50977 -0.963867 -10.4736q-2.16699 -5.96387 -6.4248 -13.7637q-4.25684 -7.7998 -5.7666 -11.9482q-22.2012 -60.9141 10.4912 -116.915q6.22754 -10.6699 -2.10352 -18.4375
q-2.86523 -2.66797 -31.3086 -32.0732q-43.7852 49.3457 -42.9365 122.099q0.848633 72.7539 43.9033 118.157zM704.6 554.837q-30.2324 29.2178 -33.3379 32.0391q-7.13867 6.49023 -1.48828 16.3145q41.0664 71.3027 -1.35254 142.035q-5.80664 9.7168 2.20508 17.3281
q2.41309 2.29395 30.3486 31.1865q42.8213 -38.9971 45.7168 -113.458q2.89551 -74.4619 -42.0918 -125.445z" />
    <glyph glyph-name="q" unicode="q" 
d="M276.396 664.31q7.8987 -1.71092 11.4206 -4.26661q3.52193 -2.55569 2.42588 -6.5087q-1.09604 -3.95301 -2.90504 -6.68161q-1.809 -2.72859 -6.26471 -8.0587q-49.5936 -59.2222 -68.5684 -82.9785q-4.91595 -6.14782 -7.12771 -9.77214
q-2.21177 -3.62432 -3.39311 -8.58123q-1.18134 -4.95691 3.32627 -8.13462q4.50761 -3.17772 14.5129 -4.80889q11.778 -1.91949 12.1893 -9.8667q0.411314 -7.94721 -3.60242 -15.439q-26.7662 -95.5907 -30.3965 -107.465q-4.5789 -13.5362 -0.334961 -20.1466
q4.24394 -6.61044 18.5439 -5.1825q16.1612 1.61188 21.5905 -5.91098q5.42931 -7.52285 6.28062 -24.2755q0.577754 -11.2044 9.9375 -121.934q15.6247 15.6247 27.9875 20.4369q12.3628 4.81213 22.2157 -1.87317t15.7618 -14.5418q5.90884 -7.85648 14.657 -23.5864
q4.05395 -7.28077 13.1118 -19.8582q9.05788 -12.5774 12.3872 -17.9455q7.51249 -12.1114 10.8756 -16.5338q3.36311 -4.42233 10.3904 -9.76306q7.02726 -5.34073 14.5008 -1.09925q7.47352 4.24148 16.7499 16.6636q16.0332 21.4472 33.1621 -4.91016
q23.5591 -36.2347 57.7103 -49.2687q34.1512 -13.034 81.5837 -10.6727q55.6168 2.7764 110.873 -30.7119q-93.2292 -59.9256 -213.521 -48.8164q-222.391 20.5344 -357.381 163.641q-120.881 128.134 -124.739 294.237q-2.40715 103.649 14.7947 186.726
q17.2018 83.0766 67.301 153.418q63.253 88.8067 157.133 145.654q93.8796 56.8472 196.618 73.4826q102.738 16.6354 211.599 -15.2356q108.861 -31.8711 196.558 -113.178q179.18 -166.122 179.459 -368.078q0 -13.4601 -0.630859 -20.7402
q-2.04471 -23.7093 -3.03062 -34.0126q-0.985911 -10.3032 -5.22777 -22.7798q-4.24186 -12.4766 -7.62872 -16.2964q-3.38685 -3.8198 -14.6568 -9.92494q-11.27 -6.10513 -21.5939 -8.61193q-10.3239 -2.5068 -32.8632 -7.72002q-84.7803 -19.6154 -222.331 -78.6992
q-94.7402 -40.6935 -177.343 -25.0195q-62.5092 11.8583 -91.2752 65.3172q-28.766 53.4588 -3.65744 111.688q22.8739 53.0107 67.8086 100.603q4.60468 -4.66179 5.90505 -10.6039q1.30037 -5.94209 1.19478 -13.0712q-0.105597 -7.12911 0.850366 -10.8142
q3.81972 -14.7366 9.81582 -20.2676q5.9961 -5.53095 20.9674 -0.291032q27.2649 9.54996 55.0882 11.4341q27.8233 1.8841 57.2057 -4.17869q29.3824 -6.06278 51.1922 -13.0367q21.8099 -6.97389 53.8293 -19.4482q49.0237 -19.101 101.421 -13.4043
q1.18027 0.128581 11.1005 1.02149q9.92027 0.892911 12.6622 1.41669q2.74193 0.523781 10.2968 2.69953q7.55489 2.17575 10.5084 5.1499q2.95356 2.97415 6.35943 8.46925q3.40586 5.4951 4.35382 12.9375q3.38577 26.5487 -1.96521 44.3547
q-5.35098 17.806 -28.7418 32.5096q-76.5922 48.1246 -124.432 76.5811q-47.8403 28.4565 -118.601 63.9243q-70.7609 35.4678 -134.164 57.8637q-99.4371 35.1257 -188.374 32.3379q12.7114 -19.9282 48.7025 -34.4393q35.9911 -14.5111 46.8024 -31.9367
l-146.344 -66.4473q-28.0655 -2.50089 -26.3057 -19.6641q0.400656 -3.96151 4.43802 -4.94276q4.03736 -0.981247 11.3284 -0.410704q7.29103 0.570543 9.91328 0.279245z" />
    <glyph glyph-name="r" unicode="r" 
d="M729.872 535.866q-161.443 -83.9189 -173.586 -90.1162q-2.49707 -1.27441 -198.115 -99.8691q-0.792969 -0.399414 -3.44238 -1.53906q-2.64941 -1.13867 -3.87988 -1.83887q-1.23047 -0.699219 -2.5127 -2.25195q-1.28223 -1.55176 -1.34766 -3.4834
q-0.0888672 -2.51367 1.27441 -4.34863q1.36426 -1.83398 2.84375 -2.59473q1.48047 -0.761719 4.35645 -1.84082q2.87695 -1.0791 3.89648 -1.57324q175.38 -84.5977 350.815 -169.071q14.5195 -7.00488 18.5566 4.18555q0.6875 -80.7617 1.30566 -161.511
q-9.09277 0.799805 -17.5498 4.00977q-8.45801 3.20898 -20.4111 9.76758q-11.9531 6.55957 -15.6953 8.33984q-78.3096 37.2754 -245.722 117.52q-167.411 80.2441 -255.182 121.949q-26.9766 12.8135 -25.3535 41.5801q2.33496 41.5234 0.109375 100.344
q-0.833008 21.9219 19.1963 31.5664q75.7422 36.4561 348.451 169.614q0.770508 0.375977 23.251 11.7725q-1.05957 4.90723 -3.43652 7.41016q-2.37695 2.50195 -8.54102 4.7666q-6.16504 2.26367 -6.22168 2.29102q-177.395 85.6621 -355.146 170.658
q-0.859375 0.412109 -3.40723 1.56641q-2.54883 1.1543 -3.5791 1.70215q-1.03027 0.546875 -3.05371 1.72754q-2.02344 1.18066 -2.92871 2.22754q-0.904297 1.04688 -2.03418 2.57812q-1.12988 1.53027 -1.54004 3.40137q-0.411133 1.87109 -0.350586 4.11621
q0.126953 5.25195 -0.676758 68.4727q-0.804688 63.2217 3.21973 68.3857q7.38281 0.386719 26.4258 -8.93457q154.422 -74.8848 158.205 -76.7002q186.981 -89.7109 374.211 -178.975q17.8799 -8.51465 17.5459 -28.9824q-0.241211 -15.2051 0.0478516 -126.322z
M729.872 535.866q-0.287109 110.55 -0.0478516 126.322q0.333984 20.4678 -17.5459 28.9824q-187.264 89.1953 -374.245 178.988q-3.35254 1.60645 -158.205 76.7002q-19.1895 9.29883 -26.3916 8.9209q0.168945 3.42969 1.92773 5.8291q1.75781 2.39844 3.30469 3.2666
q1.54688 0.867188 5.29102 2.19434q3.74414 1.32715 4.75488 1.76855q13.2695 5.83398 37.0928 16.1797q23.8223 10.3447 43.4814 18.9814q19.6582 8.63574 36.9502 16.4814q15.0859 6.8623 30.6396 -0.605469q270.596 -130.322 541.707 -259.551
q19.8018 -9.42188 19.1064 -31.498q-1.27148 -40.5693 -0.171875 -111.209q0.272461 -17.585 -14.041 -23.6494q-12.8799 -5.45898 -133.607 -58.1025zM730.064 0q-0.645508 80.7627 -1.30566 161.511q0 132.377 0.0830078 264.762q0.165039 15.7725 0.336914 31.5391
q9.50391 8.04102 21.8242 14.0645q12.3203 6.02246 27.7549 11.96q15.4336 5.9375 23.7666 10.1191q10.1523 5.09277 29.6357 13.5303t27.7803 12.4082q10.248 4.78418 14.2695 1.9043q4.02148 -2.87891 3.1875 -13.8838q-0.0830078 -1.05957 -0.0830078 -19.5947
q0 -325.685 0.398438 -402.849q0.12207 -22.3154 -20.1299 -30.5703q-15.1318 -6.16895 -127.519 -54.9004zM729.157 457.825q-0.164062 -15.7666 -0.335938 -31.5391q-6.50488 17.0469 0.335938 31.5391z" />
    <glyph glyph-name="s" unicode="s" 
d="M960.094 513.85q-0.106445 -186.551 0.253906 -210.876q0.845703 -57.5625 -48.8955 -85.5791q-136.216 -76.7197 -352.461 -202.024q-53.0117 -30.7295 -108.154 1.25879q-173.605 100.71 -348.329 199.519q-53.0078 29.9756 -52.3809 94.0244
q2.15527 216.939 -0.113281 402.569q-0.755859 61.792 53.6396 92.8311q174.372 99.4766 347.197 201.639q55.0928 32.7168 111.6 -0.866211q170.452 -101.39 343.097 -199.065q57.21 -32.2949 55.127 -96.9502q-0.46875 -14.5645 -0.580078 -196.479zM730.536 326.954
q-175.729 -101.114 -210.923 -119.804q-15.1523 -8.05078 -44.1562 8.07812q-38.6064 21.4639 -109.73 62.7314q-71.124 41.2686 -101.785 58.5723q-46.6367 26.3389 -28.1992 61.3184q18.7129 35.5576 65.791 7.84473q52.0117 -30.5684 169.698 -98.1895
q46.1084 -26.5215 66.7646 6.95801q6.77539 10.9824 7.21094 20.3906q0.435547 9.4082 -5.36523 16.958q-5.7998 7.54883 -12.1455 12.5576q-6.3457 5.00781 -16.5479 10.999q-168.195 98.7266 -281.691 162.581q-34.1943 19.125 -53.5215 7.2666
q-19.3262 -11.8574 -20.2139 -52.0693q-0.449219 -20.3818 -0.0888672 -69.5078q0.360352 -49.126 -0.578125 -69.4785q-1.65039 -45.7627 40.1504 -69.1895q150.041 -84.083 269.155 -155.609q41.5684 -24.9424 84.1992 0.353516q7.78418 4.61621 260.697 150.917
q47.5449 27.4863 47.4561 50.042q-0.0888672 22.5547 -47.8955 50.3672q-237.67 138.307 -475.433 276.473q-2.01367 1.17578 -51.2471 37.3848q166.97 97.5527 184.295 108.24q38.8359 23.9326 80.0146 -0.613281q17.9307 -10.6875 198.618 -114.945
q9.19629 -5.30762 14.6982 -8.95215q5.50098 -3.64355 12.0664 -9.86719t8.93164 -12.1328q2.36719 -5.9082 1.79102 -14.3496q-0.577148 -8.44141 -5.85449 -17.916q-8.64551 -15.5117 -21.6924 -18.6943q-13.0469 -3.18262 -22.8105 0.571289
q-9.76367 3.75293 -25.5664 12.791q-85.0869 48.7607 -169.72 98.3096q-17.2344 11.8096 -35.5723 10.5596q-18.3369 -1.25 -24.9795 -20.2979q-3.98438 -11.3887 3.66113 -30.9023q7.64551 -19.5137 18.6396 -26.3438q104.17 -64.6895 288.938 -168.826
q30.6309 -17.1396 48.7021 -5.71289q18.0713 11.4268 18.9482 48.0293q0.44043 18.4062 -0.0859375 71.9277q-0.526367 53.5205 1.03906 71.8311q2.60254 46.4033 -43.0166 71.9834q-147.522 82.5732 -264.982 153.249q-42.3135 25.4492 -83.6934 0.506836
q-20.791 -12.5332 -256.252 -149.211q-52.0264 -30.2012 -52.4248 -52.2803q-0.399414 -22.0791 50.5391 -51.8008q233.403 -136.194 466.728 -272.501q2.28809 -1.34082 57.4395 -40.5977z" />
    <glyph glyph-name="at" unicode="@" 
d="M366 743q17 -3 34 -5l-7 -146q-6 -130 -5 -169q15 -25 107 -36.5t115 27.5q10 56 6 184.5t-5 143.5q36 7 59 17.5t32 24.5q12 43 -55 136t-137 104q-86 -15 -169.5 -131.5t25.5 -149.5v0zM244 204q19 -223 182 -203.5t181 138.5q76 -80 207.5 -3.5t18.5 205.5
q200 -13 167.5 158t-207.5 121q21 24 -17 49t-94 24q0 -23 -1 -46q44 0 63 -27.5t-20 -64.5q216 79 222.5 -57.5t-195.5 -120.5q123 -133 19.5 -199.5t-182.5 26.5q-13 -138 -151.5 -154t-153.5 211q-138 -64 -204.5 42t71.5 196q-79 55 4.5 116.5t167.5 -31.5q0 29 1 60
q-89 108 -201 14.5t-38 -154.5q-128 -89 -49 -221.5t209 -78.5v0z" />
    <glyph glyph-name="t" unicode="t" 
d="M25.8525 205.376q85.9121 95.9971 99.2656 111.799q13.8486 16.3867 13.9736 34.6924q0.535156 20.0029 0.473633 191.339q-0.0615234 171.334 -0.03125 191.343q0.0429688 25.9688 -16.5527 43.2998q-28.748 30.0137 -76.0615 84.4414q-2.33398 2.67578 -4.20215 6.2207
q-1.86816 3.54492 -4.2627 9.08008q-2.39258 5.53613 -4.10645 8.92383h65.876q166.838 0 196.44 0.351562q9.87988 0.116211 15.1494 -3.24316q5.27051 -3.36035 9.40332 -11.7783q97.5449 -198.723 196.165 -396.987q0.37207 -0.749023 9.86523 -19.1543
q9.92676 20.6367 10.2354 21.3477q85.4277 196.434 170.505 393.02q3.99023 9.26074 9.25781 13.1084q5.26855 3.84863 15.9219 3.72949q27.7236 -0.310547 228.188 -0.422852q0.657227 0 20.0889 -0.850586q-1.58105 -2.80176 -3.86328 -7.63672
q-2.2832 -4.83496 -4.125 -7.94727q-1.84277 -3.1123 -4.16211 -5.30664q-7.83496 -7.4043 -28.918 -25.9629q-21.084 -18.5586 -31.7891 -29.3057q-13.8154 -13.8701 -13.8906 -28.1875q-1.25879 -243.525 -0.0185547 -487.055q0.0751953 -14.4922 13.5771 -28.4375
q10.2891 -10.6299 30.6631 -28.8721q20.373 -18.2422 26.7178 -24.2852q0.793945 -0.756836 14.707 -21.7422h-378.849q1.55566 2.79785 3.82227 7.69922q2.26855 4.90137 4.12793 8.0918q1.85938 3.18945 4.21582 5.44043q8.59082 8.20703 29.8037 27.1484
q21.2109 18.9414 32.0215 29.6982q12.1191 12.0566 12.208 25.3887q1.32617 224.72 -2.52148 389.39q-7.31543 -13.8242 -7.56152 -14.4004q-97.7812 -229.213 -195.596 -458.411q-0.283203 -0.661133 -2.42188 -6.62305q-2.13867 -5.96387 -3.40625 -7.62598
q-1.26758 -1.66211 -5.50488 -4.13672q-4.23633 -2.47559 -10.542 -2.58789q-4.33789 -0.0791016 -7.80664 0.856445q-3.46875 0.93457 -5.52832 1.96289q-2.05859 1.02832 -4.14648 3.7168q-2.08594 2.68945 -2.83984 4.00586t-2.48633 5.08105
q-1.7334 3.76562 -2.26465 4.83301q-113.495 228.117 -226.738 456.349q-0.288086 0.576172 -11.1016 20.583q-1.21191 -19.5508 -1.21289 -20.2285q-0.154297 -248.614 0.625977 -313.102q0.245117 -20.4434 15.7979 -39.4277q16.1406 -19.7002 47.6113 -54.8379
q31.4707 -35.1377 39.75 -44.6885q2.30664 -2.66113 4.13477 -6.19238t4.18457 -9.10254q2.35742 -5.57227 4.07617 -9.03418h-286.343v14.6338z" />
    <glyph glyph-name="u" unicode="u" 
d="M464.444 1024h78.4609q28.2271 -4.45764 29.8584 -4.75098q316.626 -57.2907 414.316 -366.499q4.53148 -14.3334 7.85662 -30.7296q3.32513 -16.3962 6.69139 -37.3865q3.36625 -20.9903 5.41586 -31.4855v-78.4609q-3.64265 -15.8195 -3.74902 -16.4336
q-8.03046 -51.7824 -41.4971 -92.1035q-59.6715 -69.9137 -144.455 -53.6582q-87.264 16.8312 -109.845 106.532q-2.78059 11.0149 -4.60166 24.5681q-1.82107 13.5532 -2.47217 23.1906q-0.651103 9.63738 -1.49173 25.9808q-0.840623 16.3434 -1.37292 24.0311v56.666
q-7.87353 -5.11105 -12.4668 -13.2949q-102.388 -165.746 -116.034 -186.736q-19.7105 -31.0835 -49.082 -53.2666q-24.7715 -17.7667 -51.6475 -10.5535q-26.8759 7.21324 -40.5 34.6589q-12.0369 23.7172 -13.7305 50.2578q-0.610379 16.0639 -1.78711 161.979
q0 1.24904 -1.2207 19.0049l-211.844 -340.868q0.58846 -0.744222 2.61229 -3.45868q2.02383 -2.71446 3.14161 -3.90851q159.238 -165.351 383.019 -122.878q106.125 20.1454 192.796 99.7754q21.2602 19.5747 46.4716 12.9847q25.2114 -6.58995 31.9894 -33.3402
q7.25408 -29.0177 -18.7002 -51.4355q-231.661 -199.708 -511.607 -98.5996q-110.39 39.8066 -191.088 126.627q-80.6986 86.8208 -115.57 200.148q-34.8716 113.327 -15.8591 229.556q25.9673 158.582 130.42 272.088q104.452 113.506 257.526 149.29
q3.80864 0.89264 70.0479 12.5098zM504.241 451.28l3.4873 -0.87207q0.338603 0.525055 3.7908 5.82875q3.4522 5.3037 5.18869 8.07652q88.1915 142.661 100.255 160.496q24.3262 37.1906 59.543 64.2939q26.2779 19.0735 54.7375 11.3491
q28.4597 -7.72434 43.1638 -37.0669q12.1034 -23.6842 13.9922 -50.2148q1.20162 -22.6835 1.26768 -65.1641q0.0660608 -42.4806 0.738179 -60.9834q0.263009 -26.4762 8.97949 -51.4795q9.04766 -23.5764 31.068 -30.1311q22.0203 -6.55472 43.6869 7.20337
q31.0246 19.4061 37.7051 60.1973q8.54026 51.7118 -6.84375 128.632q-21.8505 109.488 -96.825 192.23q-74.9745 82.7426 -180.666 117.223t-213.412 9.0973q-76.4991 -18.0978 -140.227 -61.8567q-63.7281 -43.7589 -104.719 -104.567t-61.6383 -131.192
q-20.6477 -70.3844 -13.6624 -147.448q6.98525 -77.0639 41.8854 -147.619q2.69756 -4.43868 6.01465 -8.45703q1.30332 2.05884 4.75439 7.4431q3.45106 5.38426 5.14112 8.11842q110.368 177.234 220.91 354.425q11.7665 19.8907 28.4639 35.874
q25.2615 22.9115 54.3179 15.5504q29.0564 -7.3611 40.0972 -39.568q8.52528 -26.0398 8.71777 -53.4404q0.0869141 -8.68673 0.0869141 -195.978z" />
    <glyph glyph-name="v" unicode="v" 
d="M1022.55 550.802v-75.9434q-1.36816 -1.75929 -1.36816 -3.99219q0 -0.43471 0.0488281 -0.818359q-1.17274 -29.8862 -7.79102 -59.043q-5.651 -29.0169 -15.2822 -56.958q-11.2679 -31.6337 -14.3877 -38.8652q-12.016 -28.2152 -27.0312 -54.957
q-17.2379 -30.1247 -38.3125 -57.6807q-23.5504 -30.8676 -51.5938 -57.7236q-22.2422 -21.547 -46.8262 -40.3984q-33.3357 -25.2715 -70.2812 -44.9102q-26.1946 -13.7695 -53.8076 -24.3496q-10.2193 -4.18822 -31.6719 -10.9404q-23.4795 -7.5496 -47.7197 -12.1748
q-0.672675 0.183594 -1.37012 0.183594q-2.17154 0 -3.69531 -1.5459l-4.25684 -0.680664q-0.42627 0.0146484 -0.854492 0.0146484q-5.43274 0 -10.3838 -2.27051l-2.98047 -0.425781q-0.555936 0.618337 -1.10645 0l-3.10742 -0.298828
q-0.845215 0.0483398 -1.70215 0.0488281q-5.34688 0 -10.3877 -1.87891l-4.25684 -0.254883q-1.08302 0.258789 -2.20508 0.258789q-2.58877 0 -4.81836 -1.32324l-3.91699 -0.383789q-1.45595 0.378906 -2.9834 0.378906q-2.34474 0 -4.50879 -0.889648
l-6.04492 -0.723633q-1.46306 0.430664 -3.00195 0.430664q-1.53694 0 -3 -0.430664l-3.19238 -0.297852h-34.4814h-21.7949l-3.15039 0.297852q-1.21358 0.414062 -2.50977 0.414062q-1.29859 0 -2.51367 -0.414062l-6.04492 0.0849609q-1.61556 1.09766 -3.57812 1.09766
q-1.36798 0 -2.59375 -0.543945l-4.89551 0.681641q-2.77333 1.17578 -5.80664 1.17578q-1.40344 0 -2.70703 -0.239258l-3.44824 0.339844h-0.212891l-3.44824 0.255859q-13.0732 3.17961 -26.4775 4.25684l-4.25684 0.766602q-1.33437 1.39103 -7.10938 1.48926
l-21.71 5.19336q-27.6618 6.79143 -54.2334 17.0283q-38.7807 14.5565 -74.4531 35.5879q-23.9435 14.2841 -37.7168 24.3486q-15.6942 11.525 -26.2646 19.7529q-12.4525 9.56303 -23.7959 20.4326q-13.1863 11.6736 -25.1162 24.6475q-1.64129 1.90834 -5.88644 5.9179
q-4.24515 4.00956 -6.11844 6.38483q-22.5242 26.1324 -41.9727 54.6162q-13.3551 19.2662 -24.6904 39.7598q-17.8078 35.6156 -24.3916 51.2959q-11.0739 27.1612 -19.2412 55.3398q-1.71307 5.78044 -4.11556 16.5914q-2.4025 10.811 -3.46159 14.8666
q-4.02624 15.4084 -6.04492 31.2031q-3.33609 20.095 -4.04492 40.4404q0.0598268 8.69712 -0.327419 28.8544q-0.387246 20.1573 -0.0394976 35.1206t2.02805 28.8258q3.75441 30.2506 5.06543 36.9932q5.00931 25.681 10.5996 46.1016q10.1511 36.6294 25.8398 71.2607
q19.8311 44.9661 48.0176 85.2236q19.467 27.9196 42.5693 52.9131q18.0255 19.2479 33.5869 32.9062q23.4196 20.5555 37.4609 30.6504q14.9963 11.4276 31.0752 21.2842q20.9254 12.4786 28.5635 17.0273q15.4037 8.95573 34.0557 17.0283q14.4812 7.0094 41.1641 16.7715
q14.3542 5.16784 38.3125 11.877q7.5742 2.11701 29.7979 6.98145q7.849 1.71474 22.362 3.78312q14.513 2.06839 19.4418 2.94246q11.4134 2.13184 23.1152 2.13184q0.52124 -0.00262451 0.595703 -0.00292968q4.4966 -0.118796 45.9264 0.255493
q41.4298 0.374289 45.8949 -2.04358q32.4037 -4.14885 36.8652 -5.15039q3.33854 -0.743551 14.5047 -3.04439q11.1661 -2.30084 17.0813 -3.76714q22.8634 -5.63124 51.083 -15.1543q21.3717 -7.34033 41.7598 -17.0283q41.6738 -19.4316 79.2217 -45.9746
q29.2148 -20.6484 55.3398 -45.0801q17.2461 -16.4533 32.1816 -33.1191q14.871 -16.5513 33.8008 -42.0156q18.7927 -25.6246 33.7998 -53.6367q14.6995 -26.9092 26.1797 -55.3398q14.2306 -34.9461 22.5186 -71.7715q5.86316 -21.5939 7.74805 -43.8887
q0 -0.936523 0.638672 -1.02246q0.809022 -6.20594 1.10645 -8.76855q0 -3.17267 0.779155 -10.8875q0.779155 -7.71485 0.498189 -11.9299q-0.191477 -3.07023 1.87305 -3.5332zM862.365 493.376q-2.16647 -5.77609 -15.0273 -20.3057q-14.8383 -16.709 -61.2568 -61.5117
q-52.6816 -49.929 -97.5254 -106.977q-55.3523 -71.571 -78.625 -136.222q-16.0535 -42.4439 -16.4746 -87.8193q-0.147949 -3.35596 -0.148438 -6.74805q0 -10.1219 1.38281 -20.2832q0.959952 -5.21647 5.875 -4.25684q1.3351 0.267021 8.16154 1.45897
q6.82643 1.19195 10.398 2.11622q31.3888 7.99153 61.6826 19.4121q40.9244 15.9195 78.3701 38.8652q68.6509 42.2079 119.193 104.976q32.9711 40.7943 56.5322 87.6494q27.845 55.9785 39.9297 117.32q6.8779 34.0477 8.51367 68.749q0.65332 11.9305 0.65332 23.917
q0 19.5154 -1.8457 39.4258q-0.111201 1.07145 -0.775939 9.94062q-0.664738 8.86917 -1.52289 13.3875q-8.20348 43.5239 -11.3232 55.3398q-18.8141 73.0856 -60.1504 136.222q-14.005 21.9215 -30.5215 42.0156q-22.2997 27.7396 -48.6143 51.7217
q-15.1478 13.5087 -25.2012 21.2842q-19.1581 15.2347 -39.8018 28.4365q-15.2087 9.72211 -36.6523 21.2842q-22.6296 11.8405 -46.4854 20.9014q-27.0826 10.6168 -55.3398 17.5381q-22.0119 5.35779 -38.9082 8.0459q-28.4963 4.58431 -57.3398 5.66211
q-9.47546 0.368164 -19.0166 0.368164q-24.4212 0 -49.0947 -2.53906q-26.9241 -2.82461 -53.3389 -8.72754q-73.9633 -16.7069 -139.201 -55.3398q-25.0269 -14.8836 -48.0176 -32.7354q-10.6097 -8.21714 -37.418 -32.2246q-16.5327 -15.8923 -31.2891 -33.459
q-20.3792 -22.8773 -36.8643 -48.6992q-22.5163 -34.4935 -38.7383 -72.3682q-16.3821 -38.8351 -26.1377 -79.8594q-11.9609 -51.1095 -11.9609 -104.056q0 -16.4399 1.14844 -32.4209q2.14011 -31.9202 8.13086 -63.3428q5.35489 -27.5892 14.1758 -54.2754
q10.6862 -32.5191 26.1377 -63.0449q13.5348 -27.2085 30.7344 -52.2754q3.64049 -5.20767 6.08789 0.766602q10.8999 25.0019 18.8574 51.083q7.42957 25.0123 12.4307 47.3369q4.69051 20.9401 11.3232 64.7051q1.15635 7.57691 4.25684 39.5039
q4.61308 47.919 5.95996 65.0879q4.64025 55.8525 11.2383 82.3721q12.1599 52.7114 50.1885 91.1826q29.1839 28.3892 65.9824 45.8047q37.1351 17.611 76.624 28.9893q28.2392 8.70659 78.0723 6.76855q15.7906 -1.1167 31.2881 -4.25684q21.474 -3.85253 23.6689 -3.7041
q0.725449 -1.98535 2.83887 -1.98535q7.56686 -0.311971 14.3584 -2.6543q15.5023 -3.68489 48.6572 -14.4736q31.4155 -9.67951 60.6602 -24.6895q2.44004 -1.28088 2.47017 0.850736q0.0124159 0.87838 0.169481 1.19223q1.54987 -4.31351 5.91699 -5.7041
q11.8881 -4.1445 27.585 -10.5996q28.7764 -11.749 58.4473 -20.9873q56.3526 -17.7098 66.7061 -22.2637q44.7315 -18.9101 67.0889 -44.6543q19.0777 -20.9858 20.8164 -49.2949q1.50868 -29.648 -18.5176 -63.6416q-6.63906 -11.2762 -9.32324 -13.0254
q-1.78393 1.53452 -3.91602 0q-14.2578 -10.7381 -29.7988 -19.54q-44.3968 -23.7544 -92.46 -38.7803q-47.2075 -14.8495 -96.5889 -18.1338q-11.0653 -0.811523 -22.2178 -0.811523q-16.0313 0 -32.3984 1.79004q-31.0675 2.98266 -58.7881 17.3262
q-7.1196 3.85031 -8.85449 3.5332q5.70168 -7.57088 13.6221 -12.7715q34.0385 -23.5914 75.4326 -24.9453q5.23065 -0.185547 10.4521 -0.185547q41.9297 0 82.3057 11.9775q38.4854 10.3812 74.9219 26.5625q31.4612 14.0721 60.2783 32.9912
q4.88451 3.28543 13.9752 10.4175q9.09073 7.13202 13.7796 10.314zM535.945 629.129q-0.770399 38.5266 -27.0104 65.0312q-26.24 26.5046 -64.7259 26.7901q-36.9738 -1.12738 -62.8512 -27.7567q-25.8773 -26.6294 -25.8773 -63.7657q0 -37.1369 25.8773 -63.7666
q25.8773 -26.6297 62.8513 -27.7578q38.5298 0.316926 64.5698 26.5442q26.04 26.2273 27.1665 64.6814zM771.268 518.193q0.130371 -0.00146484 0.261719 -0.000976563q8.2287 0 14.0838 5.78976q5.8551 5.78976 5.95917 14.0061q0.000976563 8.32935 -5.79968 14.13
q-5.80066 5.80066 -13.9943 5.80066l-0.46875 -0.0078125q-8.15259 0 -13.8282 -5.67566q-5.67566 -5.67566 -5.67566 -13.6935l0.0078125 -0.425781q-0.00292969 -8.41742 5.69296 -14.1441q5.69589 -5.7267 13.7611 -5.77873zM538.797 1.70312l0.510742 -1.70312h-57.2979
q0 0.184375 0.46875 1.70312h21.8379q4.94167 0.0499692 17.2402 0.0157471t17.2402 -0.0157471zM1019.4 577.279q0.786223 -0.752456 1.40527 -6.72559q0.498225 -4.82571 1.74512 -5.40625v-14.3457q-2.0555 0.460947 -1.87305 3.66113
q0.276402 4.14656 -0.519102 11.8106t-0.758241 11.0058zM535.945 629.129q-1.1267 -38.4606 -27.186 -64.6902q-26.0593 -26.2295 -64.6783 -26.5784q-36.9741 1.12812 -62.8513 27.7574q-25.8772 26.6292 -25.8772 63.7661q0 37.1364 25.8773 63.7663
q25.8773 26.63 62.8512 27.7581q38.5615 -0.254101 64.8275 -26.7592q26.266 -26.5051 27.0368 -65.0201zM444.507 692.557q-0.842285 0.0219727 -1.69043 0.0224609q-26.22 0 -44.7814 -18.5614q-18.5614 -18.5614 -18.5614 -44.7814l0.0302734 -0.533203
q0.411932 -26.3615 19.2386 -44.9136q18.8267 -18.5522 45.2458 -18.5522q26.114 0 44.8593 18.1829q18.7453 18.1829 19.5978 44.1764q0.442332 27.1208 -18.9231 46.46q-19.3655 19.3393 -45.0154 18.4999zM862.62 493.461h-0.254883q-4.53751 -3.07923 -13.6542 -10.1804
q-9.11668 -7.10114 -14.1437 -10.4232q-28.8161 -18.9184 -60.2773 -32.9912q-36.438 -16.1813 -74.9219 -26.5625q-40.1964 -11.9238 -82.498 -11.9238q-6.54318 0 -10.2607 0.131836q-41.3931 1.35387 -75.4316 24.9453q-7.92187 5.2006 -13.6221 12.7715
q1.70911 0.330524 8.85352 -3.5332q27.7206 -14.3435 58.7881 -17.3262q16.3954 -1.79297 32.9805 -1.79297q10.532 0 21.6357 0.814453q49.3851 3.17451 96.6318 17.9209q48.0708 14.9377 92.5029 38.6104q15.5306 8.79459 29.7988 19.5391q2.08969 1.53498 3.87305 0z
M525.133 768.884q17.3552 4.4248 35.4229 4.4248q3.81533 0 7.14648 -0.167969q41.073 -2.34178 63.8535 -27.7979q8.74096 -9.16989 12.4297 -21.2852q-0.156719 -0.313715 -0.169024 -1.19166q-0.0298868 -2.13241 -2.46965 -0.851307q-29.2423 15.0556 -60.6611 24.7754
q-33.1445 10.7853 -48.6572 14.4736q-6.78668 2.34065 -13.9619 2.68164q-2.51087 -0.0263672 -3.23535 1.95801q4.794 0.0649398 8.93945 2.46875zM771.268 518.193q-8.0645 0.0520196 -13.7598 5.78128t-5.69529 13.8008l-0.00390625 0.774414q0 8.01726 5.67574 13.6932
q5.67574 5.67594 13.6934 5.67594q0.369141 -0.00341797 0.608398 -0.00292969q8.19426 0 13.9946 -5.80013q5.80033 -5.80013 5.80033 -13.9938q-0.112856 -8.34922 -5.96993 -14.137q-5.85707 -5.78779 -14.0867 -5.78779zM441.526 5.36328
q-13.5302 0.463027 -26.5205 4.25781q13.429 -1.07287 26.5205 -4.25781zM588.901 6.59863q-1.45844 -1.05625 -12.0898 -1.83105q5.00938 1.86719 10.3984 1.86719q1.03989 0 1.69141 -0.0361328zM607.334 9.87598q-4.82852 -2.2666 -10.1992 -2.2666
q-0.836975 0 -1.08203 0.0107422q4.95407 2.25586 10.4395 2.25586h0.841797zM457.192 3.78906q-1.55569 -0.499023 -3.20605 -0.499023q-2.85394 0 -5.30762 1.43555q1.34084 0.246094 2.70898 0.246094q3.01524 0 5.80469 -1.18262zM410.877 10.5996
q-5.90639 0 -7.10938 1.49023q5.77624 -0.100496 7.10938 -1.49023zM572.47 4.72559q-1.34515 -1.26328 -7.02441 -1.06445q2.21972 1.31738 4.81348 1.31738q1.15097 0 2.21094 -0.25293zM561.529 3.27734q-2.10886 -0.943359 -4.43066 -0.943359
q-1.58167 0 -3.06152 0.432617q2.15455 0.885742 4.50488 0.885742q1.54488 0 2.9873 -0.375zM468.26 2.34082q-1.14677 -0.317383 -2.35156 -0.317383q-2.01076 0 -3.82031 0.871094q1.22797 0.544922 2.58203 0.544922q1.97284 0 3.58984 -1.09863zM547.992 2.04297
q-1.47169 -0.460938 -3.02246 -0.460938q-1.55077 0 -3.02246 0.460938q1.47686 0.429688 3.02441 0.429688q1.54364 0 3.02051 -0.429688zM616.528 11.9189q-0.841214 -1.65278 -5.1084 -1.36133q1.54808 1.54492 3.73047 1.54492q0.70074 0 1.37793 -0.183594z
M479.371 2.00098q-1.2046 -0.461914 -2.50879 -0.461914q-1.31005 0 -2.51465 0.461914q1.21952 0.414062 2.50977 0.414062q1.29415 0 2.51367 -0.414062zM1017.66 587.07q1.31934 0 0.638672 -1.02148q-1.04268 0.14871 -0.638672 1.02148zM593.115 7.19434
q-0.49754 -0.745598 -1.10645 0q0.550509 0.618337 1.10645 0zM445.358 5.06543l-0.425781 0.0429688zM523.6 768.287q-4.14646 -2.40529 -8.93945 -2.46875q1.03094 0.980151 8.93945 2.46875zM525.133 768.884l-1.49023 -0.638672zM444.507 692.557
q25.7967 0.838882 45.078 -18.5206q19.2812 -19.3595 18.7756 -46.6522q-0.853147 -25.992 -19.5974 -44.1674q-18.7442 -18.1754 -44.8597 -18.1754q-26.4201 0 -45.2463 18.5448q-18.8262 18.5448 -19.2381 44.9044q-0.00488281 0.317383 -0.00488281 0.761719
q0 26.22 18.5614 44.7814q18.5614 18.5614 44.7814 18.5614q0.394589 0 1.75 -0.0380859z" />
    <glyph glyph-name="w" unicode="w" 
d="M866.859 843.361q-100.133 45.9453 -208.432 64.6475q-2.22754 0.408203 -3.35059 -1.58496q-13.4678 -23.9521 -25.9531 -53.3096q-118.264 17.7051 -234.103 0q-10.5059 25.2451 -26.3574 53.3096q-1.12109 1.9248 -3.34961 1.58496
q-108.243 -18.6436 -208.432 -64.6475q-0.886719 -0.382812 -1.37207 -1.17871q-180.52 -269.692 -151.279 -582.842q0.125977 -1.45508 1.33203 -2.39648q117.516 -86.3018 255.696 -129.254q2.17188 -0.662109 3.59277 1.17871q30.1299 41.1436 52.3096 85.0859
q1.63281 3.21191 -1.77539 4.50977q-39.8301 15.1084 -79.8779 38.0723q-1.51172 0.882812 -1.61426 2.64648q-0.102539 1.76465 1.29102 2.7998q8.57324 6.42383 15.8633 12.4336q1.50684 1.25293 3.30957 0.447266q125.688 -57.3857 258.052 -57.3857
q132.364 0 256.569 57.3857q1.76758 0.855469 3.35059 -0.407227q8.02344 -6.6123 15.9033 -12.4736q1.39746 -1.0332 1.31152 -2.7998q-0.0849609 -1.76562 -1.59375 -2.64648q-38.0107 -22.2188 -79.9189 -38.0322q-3.39355 -1.29004 -1.73438 -4.5498
q22.5879 -43.751 52.2686 -85.0459q1.35059 -1.90234 3.59277 -1.21875q138.389 42.8096 256.1 129.254q1.20703 0.893555 1.33203 2.35645q30.4805 315.317 -151.4 582.842q-0.407227 0.819336 -1.33105 1.21875zM342.188 375.675q-37.8877 0 -64.957 30.2969
q-27.0703 30.2969 -27.0703 72.9102q0 42.7695 26.8369 72.9883q26.8379 30.2197 65.1904 30.2197q38.6621 0 65.6475 -30.377q26.9863 -30.377 26.3789 -72.8311q0 -42.7686 -26.8369 -72.9883q-26.8379 -30.2188 -65.1895 -30.2188zM682.442 375.675
q-37.8867 0 -64.9561 30.2969t-27.0693 72.9102q0 42.7695 26.8359 72.9883q26.8369 30.2197 65.1895 30.2197q38.6631 0 65.6484 -30.377q26.9854 -30.376 26.3789 -72.8311q0 -42.8486 -26.7207 -73.0273q-26.7197 -30.1797 -65.3066 -30.1797z" />
    <glyph glyph-name="x" unicode="x" 
d="M842.289 0.707031h-638.55q-22.6849 0 -30.4023 13.6328q-8.2925 14.6466 3.11523 34.2256q65.4844 112.161 99.8252 172.982q12.6776 22.4375 38.0703 22.25q26.1993 -0.210071 119.839 -0.151978t119.806 -0.864624q20.8624 -0.402482 29.7261 14.6521
q8.86372 15.0546 -2.10791 33.9573q-6.11573 10.3026 -133.211 230.188q-10.5992 18.2941 -26.9398 18.1124t-26.9069 -18.6427q-104.698 -181.839 -123.732 -215.229q-10.8093 -18.9647 -33.1426 -18.8037q-12.3519 0.072248 -204.38 0.132812q-22.2587 0 -30.2488 13.6469
t3.15991 32.7535q80.0508 137.873 160.3 275.681q22.3072 38.482 64.8028 112.312t62.5322 108.441q14.563 25.0218 42.4071 72.4917t40.6701 69.4692q3.18094 5.49213 9.61975 17.0863q6.43881 11.5941 9.89099 17.5153q10.1477 17.4444 25.6078 17.458
q15.4601 0.013626 25.5426 -17.458q99.6045 -172.563 199.032 -345.061q74.1514 -128.594 148.171 -257.231q47.9688 -83.1436 96.1582 -166.178q55.2373 -95.4727 110.476 -191.034q11.2359 -19.5542 3.17041 -33.2588t-30.7671 -13.7383h-131.467z" />
  </font>
</defs>
</svg>
